<?xml version="1.0" encoding="utf-8"?>
<!-- Generator: Adobe Illustrator 23.0.3, SVG Export Plug-In . SVG Version: 6.00 Build 0)  -->
<svg version="1.1" id="Layer_1" xmlns="http://www.w3.org/2000/svg" xmlns:xlink="http://www.w3.org/1999/xlink" x="0px" y="0px"
	 viewBox="0 0 163 46" style="enable-background:new 0 0 163 46;" xml:space="preserve">
<style type="text/css">
	.st0{fill:#C0056F;}
</style>
<g>
	<path class="st0" d="M73.7,13.8c-1.2,0.5-2.1,1.2-2.8,2.2s-1,2.2-1,3.7c0,0.7,0.1,1.1,0.2,1.4c0.1,0.3,0.2,0.4,0.2,0.4
		c-1,0-1.7-0.2-2.2-0.6c-0.5-0.4-0.7-1.1-0.7-2c0-1.2,0.5-2.3,1.4-3.4c0.9-1.1,2.2-2,3.6-2.6c1.5-0.7,3-1,4.4-1c0.3,0,0.6,0,1.1,0.1
		l-4.3,20.2h-3.9L73.7,13.8z"/>
	<path class="st0" d="M83.9,13.7c-1.2,0.4-2.2,1.1-2.8,2c-0.6,0.9-1,2-1,3.4c0,0.6,0.1,1.1,0.2,1.6c0.1,0.5,0.3,0.9,0.5,1.2
		c-1.2,0-2-0.2-2.6-0.7c-0.5-0.5-0.8-1.2-0.8-2.2c0-1.3,0.4-2.4,1.1-3.5s1.7-2,3-2.6c1.3-0.6,2.6-1,4.1-1c0.4,0,0.8,0,1.1,0.1
		c0.3,0.1,0.7,0.2,1.1,0.3l3.2,14.4l3-14.7h2.6l-4.4,20.2h-3.7l-3.1-13.4l-3.1,13.4h-2.6L83.9,13.7z"/>
	<path class="st0" d="M99,32.1c-0.9-0.4-1.5-0.9-2-1.7c-0.5-0.7-0.7-1.5-0.7-2.5c0-0.8,0.2-1.5,0.5-2.2c0.3-0.6,0.8-1.2,1.3-1.5
		s1.2-0.6,1.9-0.6c0.6,0,1.2,0.2,1.6,0.5c0.4,0.3,0.7,0.8,0.8,1.3c-0.9,0-1.7,0.2-2.2,0.7s-0.8,1.2-0.8,2c0,0.8,0.2,1.4,0.7,1.9
		c0.5,0.5,1.1,0.7,1.9,0.7c1,0,1.7-0.3,2.4-1c0.6-0.6,0.9-1.4,0.9-2.4c0-0.8-0.2-1.6-0.7-2.4c-0.5-0.8-1.2-1.7-2.1-2.8
		c-1-1.1-1.7-2.1-2.2-2.9c-0.5-0.8-0.7-1.7-0.7-2.6c0-0.9,0.3-1.8,0.8-2.5c0.5-0.7,1.2-1.3,2.2-1.8c0.9-0.4,2-0.6,3.1-0.6
		c1.5,0,2.6,0.3,3.5,1s1.3,1.6,1.3,2.8c0,0.8-0.2,1.4-0.6,1.8c-0.4,0.5-0.9,0.7-1.5,0.7c-0.7,0-1.2-0.3-1.6-0.8
		c0.3-0.3,0.6-0.6,0.8-1s0.3-0.8,0.3-1.3c0-0.6-0.2-1-0.5-1.4c-0.3-0.3-0.8-0.5-1.4-0.5c-0.7,0-1.3,0.3-1.8,0.8
		c-0.5,0.5-0.7,1.2-0.7,2c0,0.7,0.2,1.4,0.6,2s1.1,1.4,1.9,2.4c0.7,0.8,1.3,1.4,1.7,2c0.4,0.6,0.8,1.2,1.1,1.9
		c0.3,0.7,0.5,1.5,0.5,2.4c0,1.2-0.3,2.2-1,3.1c-0.6,0.9-1.5,1.7-2.6,2.2c-1.1,0.5-2.3,0.8-3.7,0.8C100.9,32.7,99.9,32.5,99,32.1z"
		/>
	<path class="st0" d="M117.4,13.8c-1.2,0.5-2.1,1.3-2.8,2.3s-1,2.2-1,3.6c0,0.7,0.1,1.1,0.2,1.4c0.1,0.3,0.2,0.4,0.2,0.4
		c-1,0-1.7-0.2-2.2-0.6c-0.5-0.4-0.7-1.1-0.7-2c0-1.2,0.5-2.3,1.4-3.4c0.9-1.1,2.2-2,3.6-2.6c1.5-0.7,3-1,4.4-1c0.3,0,0.6,0,1.1,0.1
		l-1.7,8h4l1.7-8h3.9l-4.3,20.2h-3.9l2.2-10.2h-4l-2.2,10.2h-3.9L117.4,13.8z"/>
	<path class="st0" d="M133,31c-0.9-0.9-1.3-2.2-1.3-4.1c0-1.6,0.3-3.4,0.9-5.4c0.6-2,1.4-3.7,2.5-5.1c1.1-1.4,2.4-2.1,3.9-2.1
		c0.5,0,1,0.1,1.4,0.2c-0.8,0.5-1.6,1.4-2.3,2.9c-0.7,1.5-1.3,3.1-1.8,4.9c-0.5,1.8-0.7,3.4-0.7,4.8c0,1,0.1,1.7,0.4,2.3
		s0.6,0.8,1.2,0.8c0.9,0,1.8-0.6,2.6-1.9c0.9-1.3,1.6-2.9,2.2-4.8c0.6-1.9,0.9-3.8,0.9-5.6c0-1.1-0.1-2-0.3-2.7
		c-0.2-0.7-0.5-1.2-1-1.5c-0.5-0.3-1.2-0.5-2.1-0.5c-1.4,0-2.7,0.3-3.9,0.9c-1.2,0.6-2.1,1.4-2.8,2.4c-0.7,1.1-1.1,2.3-1.1,3.7
		c0,0.5,0,0.8,0.1,1.1c0.1,0.2,0.1,0.4,0.1,0.4c-0.9,0-1.6-0.2-2-0.5c-0.5-0.4-0.7-0.9-0.7-1.7c0-1.2,0.5-2.4,1.5-3.6
		c1-1.1,2.4-2.1,4.1-2.8c1.7-0.7,3.5-1.1,5.3-1.1c2.2,0,3.9,0.6,4.9,1.8c1,1.2,1.5,2.9,1.5,5.1c0,1.9-0.4,3.9-1.1,6
		c-0.7,2.1-1.8,3.9-3.3,5.3c-1.5,1.4-3.4,2.2-5.5,2.2C135,32.3,133.8,31.9,133,31z"/>
	<path class="st0" d="M152.9,15l4-0.5l-1.9,9c0.9-0.1,1.7-0.4,2.4-1.1c0.7-0.7,1.3-1.5,1.7-2.5c0.4-1,0.6-2,0.6-3
		c0-1.1-0.3-2-0.8-2.6s-1.4-1-2.5-1c-2.2,0-3.9,0.6-5.1,1.7c-1.2,1.2-1.8,2.8-1.8,4.8c0,0.7,0.1,1.1,0.2,1.4
		c0.1,0.3,0.2,0.4,0.2,0.4c-1,0-1.7-0.2-2.2-0.6c-0.5-0.4-0.7-1.1-0.7-2c0-1.2,0.5-2.3,1.4-3.4c0.9-1.1,2.2-2,3.6-2.6
		c1.5-0.7,3-1,4.4-1c1.4,0,2.6,0.2,3.6,0.7s1.7,1.1,2.1,1.9s0.7,1.7,0.7,2.7c0,1.2-0.3,2.3-1,3.4c-0.6,1.1-1.6,2-2.7,2.7
		c-1.2,0.7-2.6,1.1-4.1,1.1h-0.1l-1.6,7.7h-3.9L152.9,15z"/>
</g>
<g>
	<path class="st0" d="M47.3,34.2c-0.2,0.1-0.4,0.3-0.5,0.4c-0.3-0.1-0.4-0.2-0.4-0.2c-0.2-0.1-0.1-0.3-0.2-0.2
		c-0.1,0.1-0.3,0-0.1,0.5c0,0.1,0,0.3,0,0.5c0.1,0.1,0.2,0.2,0.3,0.4c0,0,0,0,0,0c0,0,0,0,0,0c0.1,0.1,0.1,0.1,0.2,0.2c0,0,0,0,0,0
		c0,0,0,0,0,0c0,0,0,0,0,0c0.5-0.5,0.9-1.1,0.9-1.2C47.6,34.6,47.5,34.2,47.3,34.2C47.4,34.2,47.3,34.2,47.3,34.2z M46.9,34.6
		c0.1-0.1,0.2-0.2,0.3-0.3c0,0.1-0.1,0.2-0.2,0.3C47,34.7,46.9,34.7,46.9,34.6z"/>
	<path class="st0" d="M43.5,38.6L43.5,38.6l0.3-0.2l0,0c0,0-1.1-1.1-1.5-1.4c-0.1-0.1-0.1-0.1-0.2-0.2c-0.1-0.1-0.3-0.2-0.3-0.3
		c0-0.1,0.2-0.3,0.6-0.5c0.5-0.2,1.2,0.1,1.8,0.4c0.1,0,0.2,0.1,0.2,0.1c0,0,0,0,0,0c0,0,0,0,0,0c0-0.1,0.1-0.1,0.1-0.2c0,0,0,0,0,0
		c0,0,0,0,0,0c-0.1,0-0.1,0-0.2-0.1c-1.3-0.5-2.1-0.4-2.3-0.3c-0.6-0.2-1.4-0.7-1.4-0.7l-0.1-0.4c0,0,0.1,0,0.1,0
		c0.2,0.6,0.9,0.8,1.5,0.9c0.4,0.1,0.8,0.1,1.2,0.1c0.4,0.1,0.8,0.3,1.2,0.3c0,0,0,0,0.1,0c0,0,0,0,0.1,0c0,0.1-0.1,0.1-0.1,0.2
		c0,0,0,0,0,0c0,0,0,0,0,0c-0.1,0.1-0.1,0.2-0.2,0.2c0,0,0,0,0,0c0,0,0,0,0,0c0,0.1-0.1,0.1-0.1,0.1c0.7,0.3,0.8,0.2,1.1,0.2
		c0.2,0,0.5-0.3,0.8-0.6c0.2-0.2,0.3-0.3,0.3-0.3c0,0,0,0,0,0c0,0,0,0,0,0c0,0,0,0,0,0c0,0,0,0,0,0c-0.1-0.1-0.1-0.1-0.2-0.2
		c0,0,0,0,0,0c0,0,0,0,0,0c-0.1-0.1-0.2-0.2-0.3-0.3c-0.2-0.3-0.2-0.3-0.2-0.3c-0.1-0.3,0.2-0.5,0-0.5c-0.1,0-0.2-0.1-0.2-0.1
		c0,0-0.1,0.2-0.2,0.5c-0.1,0.3-0.3,0.6-0.4,1c0,0,0,0,0,0c0,0,0,0,0,0c0,0,0,0-0.1,0c-0.4,0-0.7-0.2-1.1-0.3
		c-0.3-0.1-0.6-0.1-0.9-0.1c-0.7-0.1-1.5-0.2-1.8-0.9c0.9-0.4,2-1.3,1.9-1.4C42.9,33,42.8,33,42.8,33c-1.1,1-2.4,1.5-2.4,1.5
		c0.2,0.3,0.1,0.8,0.2,0.9c0.1,0.1,0-0.1,0.5,0.4c0,0,0.1,0.1,0.1,0.1l-0.1,0c0,0-0.1,0-0.1-0.1c-0.2-0.2-0.3-0.3-0.4-0.3
		c-0.1-0.1-0.2-0.1-0.2-0.2c0-0.2,0-0.7-0.1-0.9c0.3-0.1,1.6-0.6,2.4-1.4l0,0l-0.2-0.3l0,0c-0.8,0.6-2.2,1.4-2.4,1.3
		c-0.1,0-0.1,0-0.2,0c-0.3,0.2,0,1.5,0.3,1.9c0.2,0.3,0.3,0.4,0.4,0.4c0,0,0.1,0.1,0.1,0.1c0.1,0.1,0.3,0.2,0.6,0.4
		C42,37.4,43.5,38.6,43.5,38.6z"/>
</g>
<g>
	<path class="st0" d="M54,19.7l-1.2,0.8c0,0,0,0,0,0c0.1,0,0.1,0.1,0,0.2c0,0,0,0.1-0.1,0.2c0.1-0.1,0.3-0.1,0.4-0.1
		c0.1,0,0.2-0.1,0.3-0.1l0.9-0.4C54.3,19.8,54,19.7,54,19.7z"/>
	<path class="st0" d="M52.5,22.1c0.7,1.5,2.6,1.1,2.6,1.1c-0.7,0.1-1.8-0.3-2.3-1.2c-0.5-0.9-0.1-1.5-0.1-1.5S52.1,21.3,52.5,22.1z"
		/>
	<path class="st0" d="M55.3,23.2C55.3,23.2,55.3,23.2,55.3,23.2c0.2,0,0.4-0.1,0.7-0.1c0,0,0-0.3-0.2-0.4c0,0-0.7,0.3-1.3,0.4
		c0.2,0.1,0.5,0.1,0.7,0C55.2,23.1,55.3,23.1,55.3,23.2z"/>
	<path class="st0" d="M56.6,24.7c0.1,0,0.1-0.1,0-0.2c-0.2-0.3-0.6-1-0.8-1.3c-0.2,0.1-0.4,0.1-0.6,0.1l-0.1,0l0-0.1
		c-0.2,0-1.8,0.3-2.6-1c0,0-0.1-0.1-0.1-0.2c-0.4-0.8,0-1.5,0.1-1.7l-0.1,0l1.2-0.8c-0.2-0.5-0.4-0.9-0.6-1.2c0-0.1-0.1-0.1-0.2,0
		c-0.2,0.1-0.7,0.5-0.9,1.1c0,0-1.4,0.8-1.8,1.5c-0.4,0.6,0,1,0.2,1.3c0.2,0.3,1.7,3,1.7,3s0.4,0.8,1.1,0.5c0.7-0.2,0.8-0.3,1-0.3
		c0.2,0,0.8-0.2,1-0.3C55.5,25,56.1,25,56.6,24.7z"/>
	<path class="st0" d="M52.7,20.9L52.7,20.9c-0.1,0.2,0,0.6,0.2,1c0.3,0.5,0.8,0.9,1.3,1l0.2,0c0.4-0.1,0.8-0.2,1-0.3
		c0,0-0.1-0.1-0.2-0.1c-0.4-0.3-0.8-0.9-0.8-0.9s-0.3-0.4-0.5-1.2l-0.6,0.3c-0.1,0-0.2,0.1-0.3,0.1C52.9,20.8,52.8,20.9,52.7,20.9z"
		/>
</g>
<path class="st0" d="M17.2,0.4c-1.2-1.2,0.7,2,0,2c-1.4-0.2-1.5-1.1-2.5,0.1c-0.1,0.2-0.1,0.4,0.1,0.6l1.4,1.7
	c0.1,0.2,0.3,0.2,0.5,0.2c1.2-0.2,0.9-1.5,2-2C19.5,2.6,18.4,1.5,17.2,0.4"/>
<path class="st0" d="M15.6,3.8c0-0.1,0-0.1,0-0.2c0.1,0,0.1,0,0.2,0c0,0.1,0,0.1,0,0.2C15.7,3.8,15.7,3.8,15.6,3.8z"/>
<path class="st0" d="M17.1,0.5c0.4,0.7,2.2,1.8,1.6,2.1c-0.8,0.4-1.1,1.5-1.6,1.9c0.3-0.6-0.3-1.1-0.8-1.2c0-0.6-0.4-1.2-1.1-1.1
	c0.8-0.7,1.3,0.6,1.9,0.5C18,2.6,17,0.2,17.1,0.5"/>
<path class="st0" d="M14.7,3.1c-0.1-0.1-0.1-0.3-0.2-0.4c-0.4,0.8,0,1.9,0,1.9s1.1,0.7,1.9,0.4c-0.1,0-0.3-0.1-0.4-0.2L14.7,3.1z"/>
<g>
	<path class="st0" d="M4.9,19.2c0-0.1-0.1-0.1-0.2-0.1c-0.1,0-0.1,0.1-0.1,0.2c0-0.1-0.1-0.1-0.1-0.2c-0.1,0-0.2,0-0.2,0.1
		c0,0,0,0,0,0c0,0.1,0,0.2,0.1,0.2c0,0,0,0,0.1,0c0.1,0,0.2-0.1,0.2-0.1c0,0,0,0,0,0c0,0,0,0,0,0c0,0,0,0,0,0c0,0,0,0,0,0
		c0,0.1,0.1,0.2,0.2,0.1C4.9,19.4,5,19.3,4.9,19.2C5,19.2,5,19.2,4.9,19.2z"/>
	<path class="st0" d="M5,16.1C5,16.1,5,16.1,5,16.1c-0.1,0.1-0.1,0.2,0,0.3c0,0,0.1,0.1,0.1,0.1c0,0,0.1,0,0.1,0c0,0,0,0,0,0
		c0.1-0.1,0.1-0.2,0-0.3C5.2,16,5,16,5,16.1z"/>
	<path class="st0" d="M3.9,16.1c-0.1,0.1-0.1,0.2,0,0.3c0,0,0,0,0,0c0,0,0.1,0,0.1,0c0,0,0.1,0,0.1-0.1c0.1-0.1,0.1-0.2,0-0.3
		c0,0,0,0,0,0C4.1,16,4,16,3.9,16.1z"/>
	<path class="st0" d="M5.5,17.1C5.5,17.1,5.5,17.1,5.5,17.1c-0.1,0-0.2,0.1-0.2,0.2c0,0.1,0.1,0.2,0.2,0.2c0,0,0,0,0,0c0,0,0,0,0,0
		c0.1,0,0.2-0.1,0.2-0.2C5.7,17.1,5.6,17,5.5,17.1z"/>
	<path class="st0" d="M5.5,18.8c0-0.1,0-0.2-0.1-0.3c0,0,0,0,0,0c-0.1,0-0.2,0-0.2,0.1c0,0.1,0,0.2,0.1,0.3c0,0,0,0,0,0
		c0,0,0.1,0,0.1,0C5.4,18.9,5.5,18.9,5.5,18.8z"/>
	<path class="st0" d="M5.6,17.8C5.6,17.8,5.6,17.8,5.6,17.8c-0.1,0-0.2,0.1-0.2,0.2c0,0.1,0.1,0.2,0.2,0.2c0,0,0,0,0,0c0,0,0,0,0,0
		c0.1,0,0.2-0.1,0.2-0.2c0,0,0,0,0,0C5.8,17.9,5.7,17.8,5.6,17.8z"/>
	<path class="st0" d="M5.7,18.5c0-0.1,0-0.2-0.1-0.2c0,0,0,0,0,0c-0.1,0-0.2,0-0.2,0.1c0,0.1,0,0.2,0.1,0.2c0,0,0,0,0,0
		c0,0,0,0,0.1,0C5.6,18.6,5.6,18.5,5.7,18.5z"/>
	<path class="st0" d="M5.8,17.6C5.8,17.6,5.8,17.6,5.8,17.6c0-0.1-0.1-0.2-0.2-0.2c0,0,0,0,0,0c-0.1,0-0.2,0.1-0.2,0.2c0,0,0,0,0,0
		c0,0.1,0.1,0.2,0.2,0.2c0,0,0,0,0,0C5.7,17.8,5.8,17.7,5.8,17.6C5.8,17.6,5.8,17.6,5.8,17.6z"/>
	<path class="st0" d="M5.2,19.2c0.1-0.1,0.1-0.2,0-0.3c0,0,0,0,0,0c-0.1-0.1-0.2-0.1-0.3,0c-0.1,0.1-0.1,0.2,0,0.3c0,0,0,0,0,0
		c0,0,0.1,0.1,0.1,0.1C5.1,19.3,5.2,19.2,5.2,19.2z"/>
	<path class="st0" d="M4.1,19.3c0,0,0.1,0,0.1-0.1c0,0,0,0,0,0c0.1-0.1,0.1-0.2,0-0.3c-0.1-0.1-0.2-0.1-0.3,0c0,0,0,0,0,0
		c-0.1,0.1-0.1,0.2,0,0.3C4,19.2,4,19.3,4.1,19.3z"/>
	<path class="st0" d="M4.8,15.8c-0.1,0-0.2,0-0.2,0.1c0,0,0,0,0,0c0,0,0,0,0,0c0,0,0,0,0,0c0,0,0,0,0,0c0-0.1-0.1-0.2-0.2-0.1
		c-0.1,0-0.2,0.1-0.1,0.2c0,0,0,0,0,0c0,0.1,0.1,0.1,0.2,0.1c0,0,0,0,0.1,0c0.1,0,0.1-0.1,0.1-0.2c0,0.1,0.1,0.1,0.1,0.2
		c0.1,0,0.2,0,0.2-0.1c0,0,0,0,0,0C5,16,4.9,15.9,4.8,15.8z"/>
	<path class="st0" d="M3.6,17.8C3.6,17.8,3.6,17.8,3.6,17.8c0.1,0,0.2-0.1,0.2-0.2c0-0.1-0.1-0.2-0.2-0.2c0,0,0,0,0,0
		c-0.1,0-0.2,0.1-0.2,0.2C3.4,17.7,3.5,17.8,3.6,17.8z"/>
	<path class="st0" d="M3.5,16.8c0,0.1,0,0.2,0.1,0.2c0,0,0,0,0,0c0,0,0,0,0,0c0.1,0,0.2-0.1,0.2-0.1c0-0.1,0-0.2-0.1-0.2
		c0,0,0,0,0,0C3.7,16.7,3.6,16.7,3.5,16.8z"/>
	<path class="st0" d="M3.6,17.4C3.6,17.4,3.6,17.4,3.6,17.4C3.6,17.4,3.6,17.4,3.6,17.4c0.1,0,0.2-0.1,0.2-0.2
		c0-0.1-0.1-0.2-0.2-0.2c0,0,0,0,0,0c-0.1,0-0.2,0.1-0.2,0.2c0,0,0,0,0,0C3.4,17.3,3.5,17.4,3.6,17.4z"/>
	<path class="st0" d="M3.6,18.2C3.6,18.2,3.6,18.2,3.6,18.2C3.6,18.2,3.7,18.2,3.6,18.2c0.1,0,0.2-0.1,0.2-0.2
		c0-0.1-0.1-0.2-0.2-0.2c0,0,0,0,0,0c-0.1,0-0.2,0.1-0.2,0.2C3.4,18.1,3.5,18.2,3.6,18.2z"/>
	<path class="st0" d="M3.7,18.6C3.7,18.6,3.7,18.6,3.7,18.6C3.8,18.6,3.8,18.6,3.7,18.6c0.2,0,0.2-0.1,0.2-0.2
		c0-0.1-0.1-0.2-0.2-0.1c0,0,0,0,0,0c-0.1,0-0.2,0.1-0.1,0.2C3.5,18.5,3.6,18.6,3.7,18.6z"/>
	<path class="st0" d="M3.9,18.9C3.9,18.9,3.9,18.9,3.9,18.9c0.1,0,0.1,0,0.1,0C4,18.9,4.1,18.8,4,18.7c0-0.1-0.2-0.1-0.2-0.1
		c0,0,0,0,0,0c-0.1,0.1-0.1,0.2-0.1,0.3C3.7,18.9,3.8,18.9,3.9,18.9z"/>
	<path class="st0" d="M5.4,16.7C5.4,16.7,5.4,16.7,5.4,16.7c-0.1,0-0.2,0.1-0.1,0.2c0,0.1,0.1,0.1,0.2,0.1c0,0,0,0,0,0c0,0,0,0,0,0
		c0.1,0,0.2-0.1,0.1-0.2C5.6,16.7,5.5,16.7,5.4,16.7z"/>
	<path class="st0" d="M5.2,16.3C5.2,16.4,5.2,16.4,5.2,16.3c-0.1,0.1-0.1,0.2-0.1,0.3c0,0.1,0.1,0.1,0.2,0.1c0,0,0.1,0,0.1,0
		c0,0,0,0,0,0c0.1-0.1,0.1-0.2,0.1-0.3C5.4,16.3,5.3,16.3,5.2,16.3z"/>
	<path class="st0" d="M3.7,16.4c0,0.1,0,0.2,0.1,0.3c0,0,0,0,0,0c0,0,0.1,0,0.1,0c0.1,0,0.1,0,0.2-0.1c0-0.1,0-0.2-0.1-0.3
		c0,0,0,0,0,0C3.8,16.3,3.7,16.3,3.7,16.4z"/>
	<path class="st0" d="M4.6,19.5L5.1,20l-0.5,0.5L4.1,20L4.6,19.5z"/>
</g>
<g>
	<path class="st0" d="M49.1,28.9h-1.7v0.3c0,0.4-0.4,0.8-0.8,0.8h-0.3c-0.5,0-0.8-0.4-0.8-0.8v-0.3h-1.7c-0.1,0-0.2,0-0.3-0.1
		c0,0.2,0,0.4,0,0.6c0,0.5,0.4,0.9,0.9,0.9H49c0.5,0,0.9-0.4,0.9-0.9c0,0,0-0.3,0-0.7c0-0.3-0.1-0.6-0.2-0.7l0,0.3
		c0,0.2-0.1,0.4-0.2,0.5C49.5,28.8,49.3,28.9,49.1,28.9z"/>
	<path class="st0" d="M48.5,25.5c-0.2-0.1-0.3-0.2-0.4-0.4c-0.2-0.3-0.5-0.7-1.4-1.4c-1.2-0.8-1.9,0-2.4,0.7
		c-0.2,0.3-0.4,0.5-0.6,0.6c-0.7,0.5-0.3,1.9-0.1,2.3c0,0.2-0.1,0.5-0.2,0.8c-0.1,0.3,0.1,0.5,0.3,0.5h1.9c0,0.1,0,0.3,0,0.5
		c0,0.3,0.3,0.6,0.6,0.6h0.3c0.3,0,0.6-0.3,0.6-0.6v-0.5h1.9c0.3,0,0.5-0.2,0.5-0.5l0-0.6l0,0C49.9,26.7,49.1,25.8,48.5,25.5z
		 M46.9,29.3h-1v-0.5h1V29.3z M49.4,27.3l-5.6,0.1c-0.2-0.6-0.4-1.6,0.1-2c0.2-0.2,0.4-0.4,0.7-0.7c0.6-0.7,1.1-1.4,2.1-0.7
		c0.9,0.6,1.1,1,1.3,1.3c0.1,0.2,0.2,0.4,0.5,0.5C48.8,25.9,49.5,26.5,49.4,27.3z"/>
</g>
<g>
	<g>
		<path class="st0" d="M60.3,17.2h-0.9v-0.4c0-0.4-0.3-0.7-0.7-0.7c-0.4,0-0.7,0.3-0.7,0.7v0.4h-0.9l-0.2,3.8h3.5L60.3,17.2z
			 M58.1,16.9c0-0.3,0.2-0.5,0.5-0.5c0.3,0,0.5,0.2,0.5,0.5v0.4h-1.1V16.9z"/>
	</g>
</g>
<g>
	<path class="st0" d="M29.5,39.6C29.6,39.6,29.6,39.6,29.5,39.6l-2.2-0.8c-0.1,0-0.1,0-0.1,0.1c0.2,0.3,0.3,0.5,0.4,0.6
		c0.1,0.1,0.2,0.1,0.3,0.1c0.3,0,0.8,0,1.2,0C29.3,39.6,29.4,39.6,29.5,39.6z"/>
	<path class="st0" d="M30.5,35.7c-0.1,0-0.3-0.1-0.7-0.2c-0.1,0-0.1,0-0.1,0.1l1.3,2c0.1,0.1,0.1,0.1,0,0c0-0.1-0.1-0.3-0.1-0.4
		c-0.1-0.4-0.2-1-0.3-1.2C30.6,35.8,30.6,35.7,30.5,35.7z"/>
	<path class="st0" d="M25.5,32.3c-0.4-0.1-0.7-0.3-0.9-0.5c-0.1-0.1-0.2-0.1-0.3,0l-0.1,0c-0.1,0.1-0.1,0.2,0,0.3
		c0.2,0.3,0.5,1.1,0,1.8c-0.5,0.7-1.4,0.6-1.7,0.5c-0.1,0-0.2,0-0.2,0.1l0,0.1c0,0.1,0,0.2,0.1,0.2c0.2,0.1,0.5,0.4,0.7,0.7
		c0.3,0.5,0.3,0.9,1.4,1.6c0.9,0.5,1.8,0.5,2.3,1.2c0.1,0.1,0.2,0.2,0.3,0.2l2.9,1c0.1,0,0.2,0.1,0.3,0.1c0.4,0,0.7,0,0.9-0.3
		c0.2-0.3,0.2-0.6,0.1-1c0-0.1-0.1-0.2-0.2-0.3l-1.8-2.6c-0.1-0.1-0.2-0.2-0.3-0.2c-0.8-0.4-1-1.2-1.7-1.9
		C26.5,32.3,26.1,32.4,25.5,32.3z"/>
</g>
<g>
	<path class="st0" d="M25.2,19.8c0.2,1,0.6,1.1,0.6,1.1c0.9,0.2,2.3-0.4,2.4-0.7c0.1-0.2,0.1-0.7,0.1-0.9c-0.5,0.4-1.2,0.5-2,0.5
		C25.8,19.9,25.4,19.8,25.2,19.8z"/>
	<path class="st0" d="M23.6,20.9c0,0,0-1.8,0.1-2.6c0,0,0,0-0.1,0c0,0-0.1,0-0.1,0c-0.2,0-0.3-0.1-0.4-0.2c0,0.1,0.1,0.2,0.1,0.3
		c0.2,0.4,0.1,2.4,0.1,2.4S23.3,21,23.6,20.9z"/>
	<path class="st0" d="M27.9,19.1c-0.7,0-0.9-0.3-0.9-0.3s0,0,0,0c0,0,0,0,0,0c0,0,0,0,0,0c0,0,0,0,0,0c-0.3-0.1-0.5-0.1-0.8-0.2
		c-0.4-0.1-0.6-0.6-0.9-0.9c-0.2-0.3-0.4-0.6-0.7-0.8c0,0-0.1-0.1-0.1-0.1c0,0-0.1-0.1-0.1-0.1c-0.3-0.5-0.5-0.7-0.6-0.8
		c0,0,0,0,0,0c-0.3,0-1.2,1-0.6,2c0,0,0,0,0,0c0.2,0.3,0.3,0.3,0.5,0.3c0.1,0,0.1,0,0.2,0c0,0,0,0,0.1,0c0.3,0,0.7,0.2,1.5,1.5
		c0,0,0.5,0.1,1.2,0.1c0.6,0,1.4-0.1,2-0.6C28.3,19.3,28.5,19.2,27.9,19.1z M26.4,19.1c-0.3,0-0.7-0.2-1.1-0.9
		c-0.3-0.6-0.6-1-0.8-1.4c0,0,0,0,0.1,0c0,0,0,0,0.1,0c0,0,0.1,0.1,0.1,0.1c0.3,0.3,0.4,0.6,0.7,0.9c0.2,0.3,0.4,0.5,0.7,0.6
		c0.3,0.1,0.5,0.1,0.8,0.2c0,0,0,0,0.1,0c0,0,0,0,0,0C26.8,19,26.6,19.1,26.4,19.1z"/>
</g>
<path class="st0" d="M44,3.1l-0.3-1.2c-0.2,0.8-0.7,1.8-1.1,2.2c-0.5,0.4-1.2,1.1-1.2,1.1l0.2,0.2C42.9,4,43.6,3.4,44,3.1z"/>
<path class="st0" d="M44.3,1.2c-0.5,0.2-0.5,0.4-0.5,0.4L44.1,3l0.1,0.3c0.2,2.2-1.6,2.8-1.2,3.5C43,6.9,43.1,7,43.2,7.1
	c0.6,0.6,1.7,1.2,1.8,1.1c0.2-0.1,0.8-0.5,1-0.6c0.1-0.1,0-0.2-0.1-0.3c-0.1-0.1-0.2-0.1-0.2-0.1c0.2-0.1,0.4-0.5,0.4-0.5
	s0-0.1-0.3-0.5c-0.3-0.4,0.5-1.9,0.7-2.4c0.2-0.5,0.6-1.1,0.6-1.1c0-0.1-0.1-0.2-0.1-0.2c-0.2-0.2-0.3,0.1-0.5,0.3c0,0,0,0,0-0.1
	c0,0,0,0,0-0.1c-0.2-0.3-0.6-0.8-0.9-1c0,0,0,0,0,0c0,0,0,0,0,0c0.2-0.1,0.4-0.2,0.4-0.2c0,0.2,0.1,0.3,0.2,0.4c0.4,0.4,1,0.6,1,0.6
	c0.2-0.1,0.1-0.2,0.1-0.2C47.2,2.2,47.1,2.1,47,2c-0.2-0.2-0.2-0.3-0.4-0.6c-0.2-0.3-0.3-0.7-0.4-0.9"/>
<path class="st0" d="M45.2,1.8C45.2,1.8,45.2,1.8,45.2,1.8C45.3,1.8,45.3,1.9,45.2,1.8c0.4,0.3,0.9,1,1.1,1.3c0,0,0,0,0,0.1
	c0,0,0,0,0,0.1c0,0.1-0.1,0.1-0.1,0.1c-0.1,0.2-0.3,0.3-0.5,0.4c0,0,0,0,0-0.1c0,0,0,0,0-0.1c-0.1-0.5-0.4-1.3-0.6-1.7
	C45.2,1.9,45.2,1.9,45.2,1.8C45.2,1.9,45.2,1.8,45.2,1.8C45.2,1.8,45.2,1.8,45.2,1.8z"/>
<path class="st0" d="M44.4,2.6c0.1-0.2,0.2-0.3,0.4-0.5l0,0c0,0,0,0,0,0c0,0,0,0,0,0c0.1,0.3,0.5,1,0.6,1.5c0,0,0,0,0,0.1
	c0,0,0,0,0,0.1c-0.5,0-1-0.3-1-0.3L44.4,2.6z"/>
<path class="st0" d="M45.3,5.4c-0.1,0-1.1-0.1-1.1-0.2c0-0.1,0.1-0.4,0.1-0.4C45.3,5.1,45.4,5.4,45.3,5.4z"/>
<g>
	<path id="path3792_5_" class="st0" d="M12.9,10.2c0,0-0.1,0-0.2,0c-0.1-0.1-0.1-0.1-0.1-0.1c0.2-0.4,0.3-0.7,0.5-0.8
		c0.4-0.4,0.9-0.5,1.5-0.3c1,0.5,1.7,0.8,2.1,0.7c0,0,0,0,0,0c0,0,0.1,0,0.2,0.1c0.1,0.1-0.3,0.4-0.9,0.2c-0.3-0.1-0.6-0.2-1-0.4
		c-0.5-0.3-1-0.4-1.3-0.3C13.2,9.4,13,9.8,12.9,10.2C12.9,10.1,12.9,10.2,12.9,10.2z M12.6,9.5c-0.1,0.2-0.4,0.3-0.7,0.2
		c-0.3-0.1-0.3-0.6-0.3-1.2c0-0.3,0-0.7-0.3-0.8c-0.3-0.2-0.5-0.3-0.8-0.5C10.3,7,10.1,6.9,10,6.8C9.7,6.6,9.8,6.3,10,6.5
		c0.1,0.1,0.3,0.2,0.5,0.3c0.1,0,0.1,0.1,0.2,0.1c0.5,0.3,1.3,0.8,1.9,0.9c0.4,0.1,0.8,0,1.4-0.1c0.8-0.2,1.3,0.8,1.4,0.9
		c0,0,0.1,0.2,0.3,0.4c0.1,0.2-0.2,0.4-0.5,0.2c-0.2-0.1-0.4-0.2-0.6-0.3c-0.6-0.3-1.2-0.2-1.7,0.3C12.8,9.2,12.7,9.3,12.6,9.5
		L12.6,9.5z M20.3,12.7C20.3,12.7,20.3,12.6,20.3,12.7c-0.1-0.1-0.1-0.1-0.1-0.1c0,0,0-0.1,0-0.3c0-0.1,0-0.2,0-0.3
		c-0.1-0.2-0.1-0.4-0.7-0.8c-0.2-0.1-0.7-0.3-1.2-0.6c0,0,0,0,0,0c0,0,0,0.1,0,0.2c0,0-0.1,0.1-0.2,0.1c-0.4,0.1-1.2,0-2.6-0.6
		c-0.4-0.2-1-0.6-1.6-0.4c-0.5,0.2-0.8,0.7-0.8,0.7c-0.1-0.1-0.1-0.1-0.1-0.1c0,0,0,0,0.1-0.1c0,0,0-0.1,0-0.1
		c0.1-0.2,0.3-0.6,0.6-0.7c0.3-0.1,0.7,0,1.2,0.3c1.8,0.8,2.3,0.2,2.3,0.1c0,0,0,0,0,0c0,0-0.1-0.1-0.2-0.2l-0.3-0.2
		c0,0-0.1-0.1-0.1-0.1c0,0,0-0.1,0-0.2c-0.1-0.1-0.1,0-0.1-0.1c0,0-0.1-0.1-0.1-0.1c0,0,0-0.1,0-0.1c0-0.1-0.1-0.1-0.1-0.1
		c0-0.1-0.1-0.2-0.1-0.2c0,0,0-0.1,0-0.1c0-0.1-0.1,0-0.1-0.1c-0.1-0.1-0.1-0.1-0.1-0.2c0,0,0-0.1,0-0.1c0-0.1-0.1,0-0.1-0.1
		c0-0.1-0.1-0.1-0.1-0.2c0,0,0,0,0-0.1c-0.1-0.1-0.1,0-0.1,0c-0.1-0.1-0.1-0.2-0.2-0.2c0,0,0-0.1,0-0.1c-0.1-0.1-0.1,0-0.1,0
		c-0.3-0.3-0.5-0.4-0.7-0.3C13,7.6,12.3,7.1,11.8,7c-0.3-0.1-0.8-0.5-1.2-0.9C10.1,5.7,9.4,5.7,9,6.2C8.9,6.4,8.7,6.6,8.6,6.9
		c-0.2,0.5-0.3,1-0.3,1C8.2,7.9,8.2,8,8.2,8c0,0-0.1,0.2-0.2,0.4C7.9,8.7,7.9,9,7.9,9C8,9,8,9.1,8.1,9.1c0.2,0.1,1.3,0.5,2.1,0.9
		c0.5,0.2,1,0.3,1.1,0.2c0-0.1,0.1-0.2,0.1-0.2c0,0,0.2,0,0.3,0.1c0.1,0.1,2.2,1.6,2.9,1.9c1.5,0.6,3.5,0.8,5.4,1.1c0,0,0.1,0,0.1,0
		c0.1,0,0.1-0.1,0.2-0.2C20.3,12.8,20.3,12.7,20.3,12.7"/>
	<path id="path3794_5_" class="st0" d="M12.8,9.8C12.8,9.8,12.7,9.8,12.8,9.8c-0.1,0.1-0.1,0.1-0.1,0.1C12.8,10,12.8,10,12.8,9.8
		C12.9,9.9,12.8,9.8,12.8,9.8"/>
	<path id="path3796_5_" class="st0" d="M13,9.5C12.9,9.5,12.9,9.5,13,9.5c-0.1,0.1-0.1,0.1-0.1,0.1C12.9,9.7,13,9.7,13,9.5
		C13,9.6,13,9.6,13,9.5"/>
	<path id="path3798_5_" class="st0" d="M13.1,9.3C13.1,9.3,13.1,9.3,13.1,9.3C13,9.4,13,9.4,13.1,9.4C13.1,9.4,13.2,9.4,13.1,9.3
		C13.2,9.3,13.2,9.3,13.1,9.3"/>
	<path id="path3800_5_" class="st0" d="M13.4,9.1C13.3,9.1,13.3,9.1,13.4,9.1c-0.1,0.1-0.1,0.1-0.1,0.1C13.4,9.2,13.4,9.2,13.4,9.1
		C13.4,9.1,13.4,9.1,13.4,9.1"/>
	<path id="path3802_5_" class="st0" d="M13.7,9C13.7,8.9,13.6,9,13.7,9c-0.1,0.1-0.1,0.1-0.1,0.1C13.7,9.1,13.7,9.1,13.7,9
		C13.8,9,13.7,9,13.7,9"/>
	<path id="path3804_5_" class="st0" d="M14,9.1C14,9.1,14.1,9.1,14,9.1C14.1,9,14.1,9,14,8.9C14,8.9,14,8.9,14,9.1
		C13.9,9,13.9,9.1,14,9.1"/>
	<path id="path3806_5_" class="st0" d="M14.3,9.2C14.3,9.2,14.4,9.2,14.3,9.2C14.4,9.1,14.4,9,14.4,9C14.3,9,14.3,9,14.3,9.2
		C14.3,9.1,14.3,9.1,14.3,9.2"/>
	<path id="path3808_5_" class="st0" d="M14.6,9.3C14.7,9.3,14.7,9.3,14.6,9.3c0.1-0.1,0.1-0.1,0.1-0.1C14.6,9.1,14.6,9.2,14.6,9.3
		C14.6,9.2,14.6,9.3,14.6,9.3"/>
	<path id="path3810_5_" class="st0" d="M14.9,9.4C15,9.5,15,9.4,14.9,9.4C15,9.4,15,9.3,15,9.3C15,9.3,14.9,9.3,14.9,9.4
		C14.9,9.4,14.9,9.4,14.9,9.4"/>
	<path id="path3812_5_" class="st0" d="M15.2,9.6C15.3,9.6,15.3,9.6,15.2,9.6c0.1-0.1,0.1-0.1,0.1-0.1C15.3,9.4,15.2,9.5,15.2,9.6
		C15.2,9.5,15.2,9.6,15.2,9.6"/>
	<path id="path3814_5_" class="st0" d="M15.5,9.7C15.6,9.7,15.6,9.7,15.5,9.7c0.1-0.1,0.1-0.1,0.1-0.1C15.6,9.6,15.5,9.6,15.5,9.7
		C15.5,9.7,15.5,9.7,15.5,9.7"/>
	<path id="path3816_5_" class="st0" d="M15.8,9.8C15.9,9.8,15.9,9.8,15.8,9.8c0.1-0.1,0.1-0.1,0.1-0.1C15.9,9.6,15.8,9.7,15.8,9.8
		C15.8,9.7,15.8,9.8,15.8,9.8"/>
	<path id="path3818_5_" class="st0" d="M16.1,9.9C16.2,9.9,16.2,9.9,16.1,9.9c0.1-0.1,0.1-0.1,0.1-0.1C16.2,9.7,16.1,9.7,16.1,9.9
		C16.1,9.8,16.1,9.8,16.1,9.9"/>
	<path id="path3820_5_" class="st0" d="M16.4,9.9C16.5,9.9,16.5,9.9,16.4,9.9c0.1-0.1,0.1-0.1,0.1-0.1C16.4,9.7,16.4,9.7,16.4,9.9
		C16.4,9.8,16.4,9.8,16.4,9.9"/>
	<path id="path3822_5_" class="st0" d="M16.7,9.8C16.7,9.8,16.7,9.8,16.7,9.8c0.1-0.1,0.1-0.1,0.1-0.1C16.7,9.6,16.6,9.7,16.7,9.8
		C16.6,9.7,16.6,9.8,16.7,9.8"/>
</g>
<path class="st0" d="M11.7,1.1C11.9,1.6,12,2.2,12,2.2s0.2,0.7,0.2,1.1c0.1,0.5,0.1,1,0.1,1c0,0.1,0.3,0,0.3,0s0.1-0.6,0.1-0.9
	c0-0.3,0.7-1.2,0.8-1.4c0.2-0.2,0.1-0.2,0.1-0.2s0-0.1-0.2-0.2c-0.2-0.1-1.2-0.6-1.3-0.9"/>
<path class="st0" d="M8.7,1c-0.3,0.4-1.1,0.6-1,0.9C6.2,2.6,6.1,3,6.1,3c0,0.1,0,0.1,0.1,0.2c0.1,0.1,0.4,0.1,0.6,0.2
	C6.5,3.8,6.2,4.2,6.3,4.3c0,0,0,0.1,0.1,0.1C6.9,4.5,8,4.6,8.3,4.7C8.5,4.9,9.2,4.8,9.6,5c0,0,0.1-0.1,0.1-0.3l0.1,0L9.7,4.3
	c0,0,0,0,0.1,0c0,0,0-0.6-0.1-0.7c-0.1-0.1-0.1-0.2,0-0.2c0.1,0,0.1-0.2,0-0.2C9.4,3,9.6,3,9.6,2.9c0-0.1-0.2-0.1-0.1-0.2
	c0.1-0.1,0-0.2,0-0.2c-0.1,0-0.1-0.1-0.1-0.2c0-0.1-0.1-0.6-0.1-0.7c0,0-0.1,0-0.1,0L9,1.2"/>
<path class="st0" d="M6.2,3.1C6.2,3.1,6.2,3,6.2,3.1c0-0.2,0.8-0.7,1.5-1c0,0,0,0.1,0.1,0.1c0,0,0.1,0.1,0.1,0.1
	c-0.3,0.3-0.7,0.7-1,1.1C6.6,3.2,6.4,3.1,6.2,3.1z"/>
<path class="st0" d="M7,3.4c0.3-0.3,0.6-0.7,1-1c0.3,0.4,0.3,0.8,0.3,0.8s0.1,0.3,0,0.7C8.1,3.7,7.6,3.5,7,3.4z"/>
<path class="st0" d="M6.4,4.3C6.4,4.3,6.4,4.3,6.4,4.3C6.4,4.3,6.4,4.3,6.4,4.3C6.4,4.2,6.6,3.9,7,3.5c0.5,0.2,1.2,0.4,1.5,0.5
	c0,0.1-0.1,0.2-0.1,0.4c0,0.1,0,0.1,0,0.2C7.9,4.5,6.9,4.4,6.4,4.3z"/>
<g>
	<path class="st0" d="M37.6,13.1L37.6,13.1c0.1,0.1,1,0.9,1.1,1c0,0,0,0,0,0c0.1,0.1,0.3,0.3,0.4,0.4c0,0,0,0,0,0
		c0.1,0.1,0.9,1.1,0.9,1.1l0,0l0,0c0.5-0.1,1.2-1,1.3-1.4c0.1-0.3,0.5-0.7,0.6-0.9c0,0,0,0,0,0c0,0,0,0,0,0c0,0,0,0,0,0l0,0
		c0.1-0.1,0.1-0.3,0.2-0.4c0-0.1-0.1-0.1-0.1,0c0,0.1-0.1,0.3-0.2,0.4c-0.3,0.3-1.3,0.5-1.3,0.5c-0.6,0.1-1.3,0.4-1.5,0.6
		c-0.1-0.1-0.2-0.2-0.3-0.3c0.2-0.2,0.6-0.9,0.7-1.4c0,0,0.2-1,0.6-1.3l0,0c0.1-0.1,0.3-0.2,0.4-0.3c0.1,0,0-0.2-0.1-0.1
		c-0.2,0.1-0.3,0.2-0.5,0.4c0,0,0,0,0,0c-0.2,0.1-0.6,0.4-0.9,0.5C38.6,11.9,37.7,12.6,37.6,13.1L37.6,13.1z"/>
	<path class="st0" d="M35.8,14.3c-0.5,0.1-0.9,0.8-1.2,1.1c0,0,0,0,0,0c-0.1,0.1-0.3,0.2-0.3,0.3c-0.1,0,0.1,0.1,0.1,0.1l0.1,0.1
		l0.3-0.4l0,0c0,0,0.1,0,0.1-0.1c0,0,0,0,0,0c0.1-0.1,0.1-0.1,0.2-0.2c0.1-0.1,0.2-0.1,0.2-0.2c0.2-0.2,0.5-0.4,0.7-0.6
		c0,0.1,0.1,0.2,0.2,0.2c0,0,0,0.1,0,0.1c0.1,0.2,0.2,0.9,0.1,1.3c-0.1,0.4-0.2,0.7-0.3,0.9c0,0,0,0.1,0,0.1l0,0.1l0,0.1
		c0,0,0.1,0,0.1,0c0.1,0,0.5-0.1,0.9-0.2c0.4-0.1,1.1,0.1,1.3,0.2c0,0,0.1,0,0.1,0c0.1,0.1,0.1,0.2,0.2,0.2
		c-0.2,0.2-0.4,0.4-0.6,0.7c-0.1,0.1-0.1,0.2-0.2,0.2c-0.1,0.1-0.1,0.1-0.2,0.2c0,0,0,0,0,0c0,0,0,0.1-0.1,0.1l0,0l-0.4,0.3l0.1,0.1
		c0,0,0.1,0.2,0.1,0.1c0,0,0.2-0.2,0.3-0.3c0,0,0,0,0.1,0c0.3-0.3,1.1-0.6,1.2-1.1c0.1,0,0.2,0,0.3-0.1c0.1-0.1,0.1-0.2,0-0.2
		c-0.1,0-0.1,0-0.2,0c0,0-0.1,0.1-0.1,0.1c0,0,0,0,0,0c0,0-0.1,0-0.1,0c-0.1,0-0.1-0.1-0.2-0.2c0,0,0-0.1,0-0.1l-1.1-1.2l-1.1-1.2
		c0,0-0.1,0-0.1,0c-0.1-0.1-0.1-0.1-0.2-0.2c0,0,0-0.1,0-0.1c0,0,0,0,0,0c0,0,0.1-0.1,0.1-0.1c0-0.1,0-0.1,0-0.2
		c0-0.1-0.2-0.1-0.2,0C35.8,14,35.8,14.2,35.8,14.3z M38.3,18.1c-0.1,0.1-0.3,0.2-0.4,0.3c0,0,0.1-0.1,0.1-0.1
		c0.2-0.1,0.3-0.3,0.5-0.5c0.2-0.1,0.3-0.3,0.3-0.4c0,0,0,0,0,0C38.7,17.8,38.5,18,38.3,18.1z M39.1,17.3c0.2,0,0,0.2,0,0.2
		c-0.1,0-0.1,0-0.1,0c0,0,0-0.1,0-0.1C38.9,17.3,39,17.3,39.1,17.3z M38.6,17.7c0,0-0.1,0.1-0.1,0.1c0.1-0.1,0.1-0.1,0.2-0.2
		C38.6,17.6,38.6,17.7,38.6,17.7z M35.4,14.6c-0.2,0.2-0.3,0.3-0.5,0.5c0,0-0.1,0.1-0.1,0.1c0.1-0.1,0.2-0.3,0.3-0.4
		c0.2-0.2,0.4-0.5,0.7-0.5c0,0,0,0,0,0C35.7,14.4,35.6,14.5,35.4,14.6z M35.5,14.7c0,0,0.1-0.1,0.1-0.1c0,0,0.1-0.1,0.1-0.1
		C35.7,14.5,35.6,14.6,35.5,14.7z M36.1,14.1c0,0.1-0.1,0.1-0.1,0.2c0,0-0.1,0-0.1,0c0,0,0-0.1,0-0.1C35.9,14.1,36.1,13.9,36.1,14.1
		z"/>
</g>
<g>
	<path class="st0" d="M2.7,15.6c0.2-0.1,1.1-0.7,1.3-1.1c0-0.1,0.1-0.1,0.2-0.2c0,0,0,0,0,0c0.1,0,0.2-0.1,0.3-0.1c0,0,0,0,0,0
		c0,0,0.1,0,0.1,0c0,0,0,0,0,0c0.3-0.1,0.7-0.2,1-0.3c0.5-0.3,0.5-0.6,0.5-0.6c0.4-0.1,0.6-0.2,0.6-0.2l0-0.1
		c-0.1,0-0.7,0.1-0.7,0.1c-0.4-0.1-0.6-0.6-0.6-0.6s-0.3-0.4-0.2-0.8c0,0,0.5-0.4,0.5-0.5l-0.1-0.1c0,0-0.2,0.2-0.5,0.4
		c0,0-0.3-0.2-0.7,0.1c-0.2,0.1-0.5,0.4-0.8,0.6c0,0,0,0,0,0c0,0,0,0,0,0c0,0,0,0,0,0c0,0-0.1,0.1-0.1,0.1c0,0-0.1,0.1-0.1,0.1
		c0,0,0,0-0.1,0c0,0,0,0-0.1,0c0,0,0,0,0,0c-0.1,0.1-0.2,0.1-0.3,0.1c-0.4,0-1.4,0.4-1.6,0.4c-0.2,0.1-1,0.4-1.2,0.4
		c-0.2,0.1-0.6,0.2-0.6,0.2s0,0.2,0.2,0.4c0,0-0.1,0,0.1,0.2C0,14.7,0.1,15,0.2,15.1c0.1,0.2,0,0.1,0.1,0.3c0.1,0.2,0.1,0.1,0.2,0.2
		c0.1,0.2,0.2,0.4,0.3,0.7C0.9,16.5,1,16.5,1,16.5c0.1,0.2,0.3,0.4,0.3,0.4s0.3-0.2,0.5-0.4C1.9,16.3,2.6,15.8,2.7,15.6z M4.5,14.1
		C4.5,14.1,4.5,14.1,4.5,14.1c-0.1,0-0.2,0.1-0.2,0.1c0,0,0-0.1,0-0.1c0-0.1-0.1,0.1,0,0.1c0,0,0,0-0.1,0c0,0,0-0.1-0.1-0.1
		c0,0,0,0,0,0c0,0,0,0-0.1,0C4,13.9,4,13.8,3.9,13.7c0,0,0-0.1,0-0.1c0,0,0,0,0,0c0,0,0,0,0,0c0,0,0,0,0,0c0,0,0,0,0-0.1
		c0,0,0,0-0.1,0c0,0,0,0,0,0c-0.1-0.1-0.1-0.3-0.2-0.4c0,0,0,0,0,0c0,0,0,0,0,0c0,0,0,0,0-0.1c0,0,0.1,0,0.1,0
		c0.1,0-0.1-0.2-0.1-0.1c0,0,0,0,0,0c0,0,0,0,0-0.1c0,0,0,0,0,0c0-0.1-0.1-0.1-0.1-0.1c0,0,0-0.1-0.1-0.1c0,0,0,0,0,0
		c0,0,0.2,0,0.1,0c0,0,0,0,0,0c0,0,0.1-0.1,0.1-0.1c0,0,0.1,0,0.1,0c0,0,0,0,0,0c0,0,0,0,0,0c0,0,0,0,0,0.1c0,0,0,0,0,0
		c0,0,0,0,0,0.1c0,0,0,0,0.1,0c0,0,0,0,0,0C3.9,12.8,4,12.9,4,13c0,0,0,0,0,0c0,0.1,0.1,0.1,0.1,0.1c0,0.1,0.1,0.1,0.1,0.2
		c0,0,0,0.1,0,0.1c0,0,0,0,0,0c0,0.1,0.1,0.2,0.1,0.2c0,0,0,0,0,0c0,0,0,0,0,0.1c0,0,0,0,0.1,0c0,0,0,0,0,0
		C4.4,13.8,4.5,13.9,4.5,14.1c0-0.1,0-0.2-0.1-0.1C4.4,14.1,4.6,14.1,4.5,14.1C4.6,14.1,4.6,14.1,4.5,14.1
		C4.6,14.1,4.6,14.1,4.5,14.1C4.6,14.1,4.6,14.1,4.5,14.1C4.6,14.1,4.6,14.1,4.5,14.1z"/>
	<path class="st0" d="M4,13.6C3.9,13.6,4,13.7,4,13.6C4.1,13.6,4,13.6,4,13.6z"/>
	<path class="st0" d="M3.9,13.3c-0.1,0,0,0.1,0,0.1C3.9,13.5,4,13.3,3.9,13.3z"/>
	<path class="st0" d="M4.1,13.4c0-0.1-0.1,0-0.1,0C3.9,13.5,4.1,13.6,4.1,13.4z"/>
	<path class="st0" d="M4.3,13.8c0.1,0,0-0.1,0-0.1C4.3,13.6,4.2,13.8,4.3,13.8z"/>
	<path class="st0" d="M4.1,13.7c0,0.1,0.1,0,0.1,0C4.3,13.6,4.1,13.6,4.1,13.7z"/>
	<path class="st0" d="M4.1,13.5C4.1,13.6,4.2,13.6,4.1,13.5C4.3,13.6,4.2,13.4,4.1,13.5z"/>
	<path class="st0" d="M3.8,13C3.8,13.1,3.8,13.1,3.8,13c-0.1,0.1-0.1,0.1-0.1,0.1C3.6,13.1,3.7,13,3.8,13C3.7,13,3.7,13,3.8,13z"/>
	<path class="st0" d="M3.9,13.2C3.9,13.1,3.8,13.1,3.9,13.2C3.7,13.1,3.8,13.2,3.9,13.2z"/>
	<path class="st0" d="M3.7,13.2c0-0.1-0.1,0.1,0,0.1C3.8,13.3,3.7,13.2,3.7,13.2z"/>
	<path class="st0" d="M3.7,12.8c-0.1,0,0,0.1,0,0.1C3.7,13,3.8,12.8,3.7,12.8z"/>
	<path class="st0" d="M3.9,12.9c0-0.1-0.1,0-0.1,0C3.7,13,3.9,13.1,3.9,12.9z"/>
	<path class="st0" d="M4.3,14C4.3,14,4.3,14.1,4.3,14c-0.1,0.1-0.1,0.1-0.1,0.1C4.2,14,4.2,14,4.3,14C4.3,14,4.3,14,4.3,14z"/>
	<path class="st0" d="M4.3,14.1C4.3,14,4.4,14.2,4.3,14.1C4.5,14,4.3,14.1,4.3,14.1z"/>
	<path class="st0" d="M4.1,13.9C4,14,4.2,14,4.1,13.9C4.2,14,4.1,13.8,4.1,13.9z"/>
	<path class="st0" d="M4.3,13.8c-0.1,0,0,0.1,0,0.1C4.3,14,4.3,13.8,4.3,13.8z"/>
	<path class="st0" d="M4.4,13.9c0-0.1-0.1,0-0.1,0C4.3,14,4.5,14,4.4,13.9z"/>
	<path class="st0" d="M4,13.2c0,0.1,0.1,0,0.1,0C4.1,13.1,3.9,13.1,4,13.2z"/>
	<path class="st0" d="M3.8,12.8c0.1,0,0-0.1,0-0.1C3.8,12.6,3.7,12.8,3.8,12.8z"/>
	<path class="st0" d="M3.6,12.7c0,0.1,0.1,0,0.1,0C3.8,12.6,3.5,12.6,3.6,12.7z"/>
</g>
<g>
	<path id="path4778_5_" class="st0" d="M24,2.4c1,0.3,1.4,1.4,1.6,2c0.1,0.2,0,0.6-0.2,0.8c-0.8,0.6-1.8-0.3-1.8-0.3
		c-0.8-0.9-0.6-1.7-0.3-2.2C23.4,2.5,23.8,2.3,24,2.4L24,2.4z M27.1,5.7C27.8,5.7,29,6,29.5,6.8c0.1,0.2,0,0.6-0.2,0.8
		c-0.4,0.3-1,0.6-1.8,0.3c-0.2-0.1-0.6-0.3-0.8-0.5c-0.3-0.3-0.6-0.8-0.4-1.4C26.5,5.8,26.9,5.6,27.1,5.7z M22.8,1.8
		c0,0.1,0.1,0.1,0.1,0.1C23,2,22.9,2.2,22.9,2.3c0,0.2-0.1,0.5-0.1,0.7c0,0.2,0,0.4,0,0.6c0,0.3,0.1,0.6,0.2,0.9
		c0.1,0.3,0.3,0.5,0.5,0.7c0.2,0.2,0.5,0.4,0.8,0.4c0.3,0.1,0.5,0,0.8,0c0.1-0.1,0.3-0.1,0.4-0.2c0.1-0.1,0.2-0.2,0.3-0.2
		c0.2,0,0.4,0.1,0.5,0.3c0,0.1,0,0.1,0,0.2c-0.1,0.2-0.1,0.3-0.2,0.5c-0.1,0.5,0,1,0.3,1.4c0.2,0.3,0.5,0.5,0.9,0.6
		c0.5,0.2,1.1,0.2,1.7,0c0.2,0,0.4-0.1,0.6-0.2c0.2,0,0.4-0.1,0.5-0.1c0,0,0.1,0,0.1,0.1c0,0.1,0.2,0,0.2-0.1c0,0,0.1,0,0.1-0.1
		c0.1-0.1,0-0.3-0.2-0.5c-0.7-0.8-1.6-1.4-2.6-1.7c-0.2-0.1-0.5-0.2-0.7-0.2c-0.2,0-0.4-0.1-0.6-0.2c-0.1,0-0.1-0.1-0.1-0.1
		c0,0,0,0,0,0c0,0,0,0,0,0c-0.1-0.1-0.2-0.2-0.3-0.3c-0.1-0.1-0.1-0.3-0.2-0.4c-0.1-0.1-0.1-0.2-0.2-0.4c-0.3-0.6-0.8-1.2-1.3-1.7
		c-0.3-0.3-0.7-0.6-1.1-0.8c0,0-0.1-0.1-0.2-0.1c0,0-0.1,0-0.1,0c0,0-0.1,0-0.1,0c0,0,0,0,0,0c-0.1,0-0.1,0.1-0.1,0.1
		C22.9,1.6,22.8,1.7,22.8,1.8"/>
</g>
<g>
	<path class="st0" d="M2.9,6.3c0.1-0.1,0.1-0.1,0-0.2L3,6L1.9,5.9c0-0.1,0-0.1,0-0.2c-0.1-0.1-0.2-0.1-0.3,0c0,0,0,0,0,0.1l-0.3,0
		c-0.1,0-0.1,0-0.1,0.1c0,0.1,0,0.1,0.1,0.1l0.3,0c0,0,0,0,0,0C1.6,6,1.7,6,1.8,6L1.6,7.1L1.8,7C1.8,7,1.9,7,2,7
		C2.7,8,3.5,9,4.4,9.8c0.1,0.1,0.2,0,0.1-0.1c0,0,0,0,0,0c0.1,0,0.2-0.1,0.1-0.1L4.5,9.5c0,0,0,0,0,0C3.8,8.6,3,7.7,2.3,6.8l0,0
		c0.8,0.9,1.4,1.8,2.3,2.6l0.1,0.1c0.1,0.1,0.2,0,0.1-0.1L4.7,9.3C3.9,8.5,3.2,7.5,2.5,6.6l0.1,0c0.8,1,1.6,1.9,2.4,2.8
		c0.1,0.1,0.2,0,0.1-0.1C4.2,8.4,3.4,7.5,2.6,6.5l0.1,0c0.7,1,1.5,1.8,2.3,2.8c0.1,0.1,0.2,0,0.1-0.1C4.4,8.2,3.5,7.3,2.9,6.3
		L2.9,6.3z M2.1,6.9L2.1,6.9c0.8,0.9,1.5,1.7,2.2,2.6C3.5,8.7,2.8,7.8,2.1,6.9z M1.9,6.7L1.9,6l0.6,0.1L1.9,6.7z"/>
	<path class="st0" d="M0.2,8.2c0,0.1,0.1,0.1,0.2,0c0.8,1,1.5,1.9,2.4,2.8C2.9,11.2,3,11.1,3,11c0,0,0,0,0,0C3,11,3.1,10.9,3,10.8
		l-0.1-0.1c0,0,0,0,0,0C2.2,9.8,1.5,8.9,0.7,8l0,0C1.5,8.9,2.2,9.8,3,10.6l0.1,0.1c0.1,0.1,0.2,0,0.1-0.1l-0.1-0.1
		C2.3,9.7,1.7,8.8,0.9,7.9l0.1,0c0.8,1,1.6,1.9,2.4,2.8c0.1,0.1,0.2,0,0.1-0.1C2.7,9.6,1.9,8.7,1.1,7.7l0.1,0c0.7,1,1.5,1.8,2.3,2.8
		c0.1,0.1,0.2,0,0.1-0.1C2.8,9.4,2,8.6,1.3,7.6l0,0c0.1-0.1,0.1-0.1,0-0.2l0.1-0.1L0.4,7.1c0-0.1,0-0.1,0-0.2
		c-0.1-0.1-0.2-0.1-0.3,0c0,0,0,0,0,0.1l-0.3,0c0,0-0.1,0-0.1,0.1c0,0.1,0,0.1,0.1,0.1l0.3,0c0,0,0,0,0,0c0,0.1,0.1,0.1,0.2,0.1
		L0.1,8.3L0.2,8.2z M0.6,8.2L0.6,8.2C1.3,9,2.1,9.9,2.8,10.8C2,10,1.3,9,0.6,8.2z M0.4,7.3L1,7.4L0.3,7.9L0.4,7.3z"/>
</g>
<g>
	<path class="st0" d="M36,4.6c0-0.1,0-0.2,0-0.2c0.2,0,0.4-0.2,0.4-0.5c0-0.3-0.2-0.5-0.5-0.5c-0.3,0-0.5,0.2-0.5,0.5
		c0,0.2,0.2,0.4,0.4,0.5C36,4.5,36,4.6,36,4.6c-0.7,0-1.3,0.6-1.3,1.2c0,0.7,0.6,1.2,1.2,1.2c0.7,0,1.2-0.6,1.2-1.2
		C37.3,5.2,36.7,4.7,36,4.6z M35.9,3.7c-0.1,0.1-0.2,0.3-0.2,0.2c0-0.1,0-0.2,0.2-0.3c0.1-0.1,0.3,0,0.3,0.1
		C36.2,3.8,36,3.7,35.9,3.7z M36,6.1c-0.4,0-0.7-0.3-0.7-0.7c0-0.4,0.3-0.7,0.7-0.7c0.4,0,0.7,0.3,0.7,0.7C36.7,5.8,36.4,6.1,36,6.1
		z"/>
	<path class="st0" d="M38.7,3.8c0-0.1,0-0.2,0-0.2c0.2,0,0.4-0.2,0.4-0.5c0-0.3-0.2-0.5-0.5-0.5c-0.3,0-0.5,0.2-0.5,0.5
		c0,0.2,0.2,0.4,0.4,0.5C38.6,3.6,38.6,3.7,38.7,3.8c-0.7,0-1.3,0.6-1.3,1.2c0,0.7,0.6,1.2,1.2,1.2c0.7,0,1.2-0.6,1.2-1.2
		C39.9,4.3,39.3,3.8,38.7,3.8z M38.5,2.9c-0.1,0.1-0.2,0.3-0.2,0.2c0-0.1,0-0.2,0.2-0.3c0.1-0.1,0.3,0,0.3,0.1
		C38.8,2.9,38.6,2.8,38.5,2.9z M38.6,5.3C38.3,5.3,38,5,38,4.6c0-0.4,0.3-0.7,0.7-0.7c0.4,0,0.7,0.3,0.7,0.7C39.3,5,39,5.3,38.6,5.3
		z"/>
</g>
<g>
	<path id="path3536_5_" class="st0" d="M18.2,33.8l0.2-0.2c0,0,0.1-0.1,0.1,0c0,0,0,0.1,0,0.1l-0.2,0.2c0,0-0.1,0.1-0.1,0
		C18.1,33.9,18.2,33.9,18.2,33.8z M19,33.8c0-0.1,0-0.2-0.1-0.2c-0.2-0.2-0.3-0.4-0.1-0.7c0.2-0.2,0.9-1.1,1.5-1
		c0.2,0,0.4,0.2,0.4,0.3c0.2,0.3,0.3,0.9,0,1.4c-0.1,0.1-0.3,0.3-0.4,0.4c-0.5,0.4-0.9,0.3-1.2,0.1C19.1,34.2,19,34,19,33.8z
		 M21.2,31c-0.1-0.6,0.7-1.4,0.9-1.6c0.2-0.3,0.5-0.1,0.7,0c0.1,0.1,0.2,0.1,0.2,0.1c0.1,0,0.3,0,0.4,0.2c0.2,0.3,0.3,0.8-0.2,1.4
		c-0.6,0.7-1.3,0.5-1.6,0.4C21.4,31.4,21.2,31.2,21.2,31L21.2,31z M22.7,28.9l0.2-0.2c0,0,0.1-0.1,0.1,0c0,0,0,0.1,0,0.1L22.8,29
		c0,0-0.1,0.1-0.1,0C22.6,29,22.7,28.9,22.7,28.9z M18.9,34.5c0.3,0.2,1,0.5,1.7-0.1c0.1-0.1,0.3-0.3,0.4-0.4c0.3-0.3,0.7-1,0.2-1.7
		C21.1,32.1,21,32,21,31.9c0,0,0-0.1,0.1-0.1c0,0,0.1-0.1,0.1-0.1c0.1,0,0.3,0.1,0.4,0.1c0.4,0.1,1.2,0.2,1.7-0.4
		c0,0,1.1-1.1,0.2-2.1c-0.1-0.1-0.2-0.4-0.3-0.5c0-0.1-0.1-0.2-0.2-0.3c-0.1-0.1-0.2-0.1-0.2-0.2c-0.1-0.1-0.4,0-0.5-0.1
		c-0.3-0.2-0.8-0.4-1.1-0.5c-0.2-0.1-0.4-0.1-0.6,0c-0.2,0-0.3,0.2-0.3,0.5c0,0.1,0,0.1,0,0.2c0,0.1,0.1,0.1,0.2,0.1
		c0-0.1,0-0.2,0-0.3c0-0.1,0-0.1,0-0.2c0.2-0.2,1,0.3,1,0.3l0.4,0.2c0.1,0.1,0.2,0.3,0.1,0.4c-0.4,0.5-1,1.2-1.1,1.7
		c-0.1,0.2-0.1,0.4-0.1,0.6c0,0.1-0.1,0.3-0.2,0.3c-0.1,0.1-0.2,0.1-0.3,0.2c-0.2,0-0.4,0.1-0.6,0.2c-0.5,0.3-1.2,0.9-1.6,1.3
		c-0.1,0.1-0.3,0.1-0.4,0l-0.4-0.6c0,0-0.6-0.8-0.4-1c0-0.1,0.1-0.1,0.2-0.1c0.1,0,0.2,0,0.3,0c0,0,0-0.1-0.1-0.2c0,0-0.1,0-0.2,0
		c-0.3,0-0.4,0.1-0.4,0.3c0,0.2,0,0.4,0.1,0.6c0.2,0.4,0.6,1,0.8,1.3c0.1,0.1,0.2,0.2,0.2,0.2c0,0,0,0.1,0,0.2c0,0.1,0,0.2,0.1,0.2
		c0,0,0.2,0.2,0.4,0.2C18.5,34.3,18.7,34.4,18.9,34.5"/>
</g>
<path class="st0" d="M17.5,22.1l-0.7,0.3c-0.5-0.9-1.5-1.3-2.4-1c-0.9,0.3-1.3,1.3-1.1,2.4l-1.2,0.4c-0.5-0.9-1.5-1.3-2.4-1
	c-0.9,0.3-1.3,1.3-1.1,2.4l-0.7,0.3c-0.2,0.1-0.3,0.3-0.2,0.6c0.1,0.2,0.3,0.3,0.6,0.2l0.7-0.3c0.5,1,1.6,1.5,2.5,1.1
	c0.9-0.3,1.3-1.4,1.1-2.5l1.1-0.4c0.5,1,1.6,1.5,2.5,1.1c0.9-0.3,1.3-1.4,1.1-2.5l0.7-0.3c0.2-0.1,0.3-0.3,0.2-0.6
	C18,22.1,17.7,22,17.5,22.1z M8.9,25.1l-0.1,0c0,0-0.1-0.8,0.4-1.4l0.1,0.1C8.8,24.4,8.9,25,8.9,25.1z M13.7,23.2l-0.1,0
	c0,0-0.1-0.8,0.4-1.4L14,22C13.6,22.5,13.7,23.2,13.7,23.2z"/>
<g>
	<path class="st0" d="M8.5,16.5c0.4,0.4,0.8,0.6,1.3,0.6c0,0.5,0.2,0.9,0.6,1.3c0.8,0.8,2.1,0.8,3,0c0.6-0.6,0.8-1.6,0.4-2.4
		c0-0.1-0.1-0.1-0.2-0.1c0,0,0,0,0,0l0,0c-0.1-0.1-0.3,0.1-0.2,0.2c0,0.1-0.1,0.2,0,0.2c0.3,0.6,0.1,1.4-0.3,1.8
		c-0.6,0.6-1.7,0.6-2.3,0c-0.3-0.3-0.4-0.6-0.5-1c0.4-0.1,0.9-0.2,1.2-0.6c0.3-0.3,0.5-0.8,0.6-1.2c0.2,0,0.3,0.1,0.5,0.1
		c0.1,0,0.2,0,0.3,0c0.3,0.1,0.6,0.1,0.9,0.2c0.1,0,0.2-0.2,0.1-0.2c-0.3-0.1-0.6-0.1-0.8-0.2c0-0.1-0.1-0.1-0.1-0.2
		c-0.2-0.1-0.4-0.2-0.7-0.2c0-0.2-0.1-0.5-0.2-0.7c0-0.1-0.1-0.1-0.2-0.1c0,0,0,0,0-0.1c-0.1-0.1-0.3,0.1-0.2,0.2
		c0,0.1-0.1,0.2,0,0.2c0.1,0.2,0.1,0.3,0.1,0.5c-0.5,0.1-0.9,0.3-1.2,0.6c-0.3,0.3-0.5,0.8-0.6,1.2c-0.3,0-0.7-0.2-0.9-0.5
		c-0.6-0.6-0.6-1.7,0-2.3c0.5-0.5,1.2-0.6,1.8-0.3c0.1,0,0.2,0,0.3,0c0.2,0.1,0.5,0.1,0.8,0.2c0.2,0,0.2-0.2,0.1-0.2
		c-0.2,0-0.5-0.1-0.7-0.2c0-0.1-0.1-0.1-0.1-0.2c-0.8-0.4-1.8-0.2-2.4,0.4C7.7,14.4,7.7,15.7,8.5,16.5z M11.6,15.4
		c-0.1,0.3-0.2,0.6-0.5,0.9c-0.2,0.2-0.6,0.4-0.9,0.4c0.1-0.3,0.2-0.6,0.5-0.9C11,15.6,11.3,15.4,11.6,15.4z"/>
</g>
<g>
	<path class="st0" d="M32.7,21.4c-0.2,0.3-0.7,1.2-0.4,2.2c0.1,0.3-0.2,0.7-0.6,1.2c-0.4,0.5-0.8,1-0.7,1.5c0,0.2,0.2,0.4,0.4,0.5
		c0.4,0.2,1.1,0.6,2.3,1.1l0,0c1.9,0.8,4.3,1.7,4.4,1.8c0,0,0.5,0.2,0.9-0.1c0.3-0.2,0.4-0.6,0.4-1.1c-0.1-1.5,0-1.6,0.1-1.8l0,0
		c0,0,0.1-0.1,0.2-0.1c0.3-0.1,1-0.4,1.5-2l0-0.1l-0.6-0.3L39.7,26c0,0,0,0.1-0.1,0.1c0,0-0.1,0-0.1,0l-2.9-1.3l-0.1,0.3
		c0,0.1-0.2,0.3-0.3,0.3l-0.4,0.2c-0.2,0.1-0.3,0-0.4-0.2L35.2,25c0-0.1,0-0.3,0-0.4l0.2-0.3L32.7,23c0,0-0.1,0-0.1-0.1
		c0,0,0-0.1,0-0.1l0.9-1.5l-0.1,0C33.1,21.1,32.9,21.2,32.7,21.4z"/>
	<path class="st0" d="M40.5,23.4c0.1-0.2,0-0.3-0.2-0.4l-5.8-2.6c-0.2-0.1-0.3,0-0.4,0.1l-1.4,2.3l2.8,1.3l-0.3,0.5
		c0,0.1-0.1,0.2,0,0.3l0.2,0.5c0,0.1,0.1,0.1,0.2,0.1l0.4-0.2c0.1,0,0.2-0.1,0.2-0.2l0.2-0.5l3,1.3L40.5,23.4L40.5,23.4z M36.7,24.3
		l-0.1-0.1l0,0c0-0.1,0-0.2-0.1-0.2L36,23.8c-0.1,0-0.2,0-0.2,0.1l0,0l-0.2-0.1l0.1-0.3l1.1,0.5L36.7,24.3z"/>
</g>
<g>
	<path class="st0" d="M62.3,12.6l0-0.3c0-0.2-0.2-0.3-0.4-0.4c-0.3-0.1-0.8-0.1-1.4-0.1c-0.5,0.1-0.9,0.2-1.1,0.3
		c-0.2,0.1-0.3,0.3-0.3,0.5c0,0.2,0,0.3,0,0.3s-0.4,0.6-0.6,1.6c-0.2,1,1.2,1.2,2.5,1c1.3-0.2,2.1-0.7,2-1.4
		C63,13.5,62.3,12.6,62.3,12.6z"/>
	<path class="st0" d="M58.9,12c-0.2,0.1-0.2,0.3-0.2,0.5L59,13l0-0.2c0-0.2,0.1-0.5,0.3-0.7c0.2-0.1,0.6-0.3,1.2-0.3
		c0.2,0,0.3,0,0.5,0c0.4,0,0.7,0.1,1,0.1c0.3,0.1,0.5,0.3,0.5,0.5l0,0.3c0,0,0,0,0,0l0-0.7c0-0.2-0.1-0.4-0.3-0.4
		c-0.3,0-0.9-0.1-1.4-0.1l-0.1-0.2c0,0,0.1-0.1,0.1-0.1c0-0.1-0.1-0.2-0.2-0.2c0,0-0.1,0-0.1,0c0.1,0,0.1,0.1,0.1,0.2
		c0,0,0,0.1,0,0.1c0,0,0,0,0,0l0,0.2c-0.1,0-0.1,0-0.2,0c0,0,0,0,0,0v-0.1c0.1,0,0.2-0.1,0.2-0.2c0-0.1-0.1-0.2-0.2-0.2
		c-0.1,0-0.2,0.1-0.2,0.2c0,0.1,0.1,0.2,0.2,0.2v0.1C59.7,11.6,59.2,11.8,58.9,12z"/>
</g>
<g>
	<g>
		<path class="st0" d="M51.5,14.1l-1.1-1.3l0.5-0.4c0.5-0.5,0.6-1.3,0.1-1.8c-0.5-0.5-1.3-0.6-1.8-0.1l-0.5,0.4l-1.1-1.2L42,14.1
			l4.4,4.9L51.5,14.1z M49.4,10.7c0.4-0.4,1-0.3,1.4,0.1c0.4,0.4,0.3,1-0.1,1.4l-0.5,0.4l-1.3-1.5L49.4,10.7z"/>
	</g>
</g>
<path class="st0" d="M58.8,6.5c-1-0.4-1.4-0.6-1.6-0.9c0,0,0,0,0,0c0,0,0,0,0,0C57,5.4,57,5.2,56.9,4.9C56.7,3.6,56,3.3,56,3.3
	c0,0-0.1,0-0.1,0c-0.1,0-0.2,0.1-0.3,0.1L55.3,3c-0.1-0.1-0.2-0.1-0.3,0C55,3,55,3.1,55.1,3.2l0.3,0.4c-0.3,0.3-0.4,0.7-0.4,0.9
	c-0.2,0-0.6,0-0.9,0.2l-0.3-0.4c-0.1-0.1-0.2-0.1-0.3,0c-0.1,0.1-0.1,0.2,0,0.3l0.3,0.4c-0.1,0.1-0.1,0.2-0.2,0.3c0,0,0,0.1,0,0.1
	c0,0,0.1,0.8,1.3,1.3c0.3,0.1,0.5,0.2,0.6,0.4c0,0,0,0,0,0c0,0,0,0,0,0c0.2,0.3,0.4,0.8,0.5,1.8c0.1,0.8,0.5,1.6,1.1,2.3
	c0.1,0.1,0.2,0.1,0.2,0l3.5-2.7c0.1-0.1,0.1-0.2,0-0.2C60.2,7.4,59.6,6.8,58.8,6.5z"/>
<g>
	<path class="st0" d="M21,7.4c-0.2,0.1-0.1,0.4,0,0.6C21.1,7.8,21,7.6,21,7.4C21,7.4,21,7.4,21,7.4z"/>
	<path class="st0" d="M23.2,11.5C23.2,11.5,23.2,11.5,23.2,11.5c-0.1-0.5,0-1.4,0.3-2c0.3-0.6,0.6-0.9,0.8-1.1l0,0
		c0.1-0.1,0-0.3-0.3-0.6c-0.3-0.3-0.7-0.7-1.3-1.2c-0.1,0.1-0.8,0.4-1.5,0.8c0,0,0,0,0,0c0,0.1,0.1,0.5,0,0.7c0,0,0,0.1,0,0.1
		c-0.1,0.1,0,0.3,0.3,0.5c0.1,0.1,0.1,0.1,0.1,0.1c0.1,0,0.3,0.1,0.5,0.3c0.1,0.2,0.2,0.4,0.2,0.6c0,0.8-0.1,3.5-0.1,3.6
		c0,0,0,0,0,0c0,0,0.1,0.1,0.3,0c0.1,0,0.1,0,0.2-0.1c0.4-0.1,0.9-0.3,1.1-1c0.2-0.8,1.8-2.1,2.1-2.3l-0.2-0.2
		C25.3,10.1,23.7,11.6,23.2,11.5C23.2,11.5,23.2,11.5,23.2,11.5z"/>
</g>
<g>
	<path class="st0" d="M34.9,37.3c-1,1.1-1.5,1.8-1.6,2.4c0.2,0.1,0.3,0.3,0.3,0.5l0.2-0.3c0.4-0.9,0.9-1.8,2.1-2.9
		c1-0.9,1.3-1.5,1.4-1.7C36.7,35.6,35.6,36.5,34.9,37.3z"/>
	<path class="st0" d="M35,34.3c-0.2,0.3-0.2,0.4-0.1,0.5c0,0.1,0,0.1,0,0.2c-0.1,0.2-0.5,0.8-1.4,2.3c-0.3,0.5-0.6,1-0.9,1.5
		c-1,2.1-0.6,3-0.6,3.2c0.3,0.1,0.6-0.1,1-0.6c0-0.2,0.1-0.3,0.1-0.5c0-0.1,0.1-0.2,0.1-0.3c0-0.1-0.1-0.2-0.1-0.4
		c0,0-0.1-0.1-0.1-0.1c-0.1-0.1-0.1-0.2-0.1-0.3c0-0.1,0.1-0.1,0.1-0.1c0,0,0.1,0,0.1,0c0-0.1,0.1-0.3,0.2-0.5
		c0.2-0.5,0.7-1.1,1.5-1.9c0.8-0.8,1.9-1.8,2.4-2.2C36,34.1,35.2,34.2,35,34.3z"/>
	<path class="st0" d="M33.1,39.7C33.1,39.7,33.1,39.7,33.1,39.7c-0.1,0-0.1,0-0.1,0c0,0,0,0.1,0,0.1c0,0,0.1,0,0.1,0.1
		c0.1,0.1,0.1,0.1,0.2,0.2c0,0.1,0,0.1,0,0.2c0,0.1,0,0.2,0,0.3c0,0.1,0,0.1-0.1,0.2c0,0.1-0.1,0.1-0.1,0.2c0,0.1,0,0.1,0,0.2
		c0,0,0,0.1,0,0.1c0,0.1,0,0.2,0.1,0.3c0.1,0.2,0.2,0.1,0.3,0c0,0,0,0,0-0.1c0.1-0.2,0.1-0.5,0-0.8c0,0,0,0,0,0c0,0,0,0,0,0
		c0-0.1,0-0.1,0.1-0.2c0,0,0,0,0,0c0,0,0,0,0-0.1c0-0.1,0-0.2,0-0.2c0-0.2-0.1-0.4-0.2-0.5C33.2,39.8,33.2,39.7,33.1,39.7z
		 M33.3,41.4c0-0.1,0-0.2,0-0.2c0-0.1,0-0.1,0-0.1C33.3,41.2,33.3,41.3,33.3,41.4z"/>
</g>
<path class="st0" d="M51.9,0.7c0,0.2,0.1,0.4,0.1,0.6c-0.2,0.1-0.4,0.3-0.5,0.4c-0.3-0.2-1-0.7-1.3-0.3C49.9,1.8,50,2.5,50,2.5
	l0.5,0.2c0,0,0.4,0.1,0.6,0c0.2-0.1,0.4,0.1,0.4,0.1l0,0c0,0,0.3,0.1,0.4,0.3c0.1,0.2,0.4,0.4,0.4,0.4l0.5,0.2c0,0,0.5-0.5,0.6-1
	C53.4,2.2,52.6,2,52.2,2c0-0.2,0-0.4-0.1-0.6c0.5-0.4,1.2-0.8,1.1-1.2"/>
<path class="st0" d="M52.1,1.4c0,0.2,0.1,0.3,0.1,0.5C51.8,1.9,51.9,2,51.9,2c-0.1,0.6-0.4,0.6-0.4,0.6l0,0c0,0-0.2-0.1,0.2-0.7
	c0,0,0.1,0,0-0.1C51.7,1.7,51.9,1.5,52.1,1.4z"/>
<path class="st0" d="M48.8,5.1c0.2,0.1,0.8,0.6,0.8,1c0.1,0.4,0.2,0.5,0.3,0.6c0.1,0,0.3,0,0.6-0.2c0.3-0.3,1.1-0.2,1.3-0.1
	c0.2,0.1,0.2,0,0.2,0s0.2-0.4,0.2-0.6c0.1-0.1,0-0.2,0-0.2L50.6,5L49,4.3c0,0-0.1-0.1-0.1,0.1C48.8,4.6,48.6,5,48.6,5
	S48.5,5,48.8,5.1z"/>
<g>
	<path class="st0" d="M26.2,25l-1.5,0.6c-0.5,0.2-0.8,0.8-0.6,1.3l1,2.6c0.2,0.5,0.8,0.8,1.3,0.6l1.4-0.6c0.4,0.6,1.4,1.5,1.8,1.3
		c0.3-0.1,0.4-0.8,0.3-1.8l0-0.1l0,0c-0.5-0.2-1.2-1.1-1.7-2.3c-0.5-1.2-0.6-2.3-0.4-2.8l0,0l0,0c-0.5-0.8-1-1.1-1.3-1
		C26.2,22.9,26.1,24,26.2,25z M28.2,29.5L28.2,29.5C28.2,29.5,28.2,29.5,28.2,29.5z"/>
</g>
<g>
	<path class="st0" d="M26.2,13.6c0,0.1,0,0.1,0,0.2c0,0.1,0,0.1,0,0.2c-0.3,0.2-0.5,0.6-0.4,0.9c0.1,0.3,0.4,0.6,0.7,0.6
		c0,0,0.1,0,0.1,0c0.1,0.1,0.1,0.2,0.2,0.3c-0.2,0.3-0.2,0.8,0.1,1c0.1,0.1,0.3,0.2,0.5,0.2c0.2,0,0.4-0.1,0.5-0.2
		c0.1,0.1,0.2,0.1,0.3,0.2c0,0.4,0.3,0.7,0.7,0.8c0,0,0.1,0,0.1,0c0.3,0,0.7-0.2,0.7-0.6c0.1,0,0.3,0,0.4-0.1
		c0.1,0.2,0.4,0.4,0.7,0.4c0.1,0,0.2,0,0.3-0.1c0.4-0.2,0.5-0.6,0.4-0.9c0.1-0.1,0.2-0.2,0.3-0.2c0.1,0,0.2,0.1,0.3,0.1
		c0.3,0,0.5-0.1,0.7-0.4c0.2-0.3,0.1-0.8-0.2-1c0-0.1,0.1-0.2,0.1-0.4c0.4-0.1,0.7-0.4,0.7-0.8c0,0,0,0,0,0c0,0,0,0,0,0
		c0-0.4-0.3-0.7-0.7-0.8c0-0.1-0.1-0.2-0.1-0.4c0.3-0.3,0.4-0.7,0.1-1c-0.2-0.3-0.6-0.4-1-0.3c-0.1-0.1-0.2-0.2-0.3-0.2
		c0.1-0.4-0.1-0.8-0.4-0.9c-0.4-0.2-0.8,0-1,0.3c-0.1,0-0.2,0-0.4-0.1C29.7,10,29.4,9.8,29,9.8c-0.4,0.1-0.7,0.4-0.7,0.8
		c-0.1,0-0.2,0.1-0.3,0.2c-0.3-0.3-0.7-0.3-1,0c-0.3,0.3-0.3,0.7-0.1,1c-0.1,0.1-0.1,0.2-0.2,0.3c-0.4-0.1-0.8,0.2-0.9,0.6
		C25.6,13,25.8,13.4,26.2,13.6z M26.6,13.6c0.3,0,0.6-0.2,0.7-0.6c0.1-0.3,0-0.6-0.3-0.8c0-0.1,0.1-0.1,0.1-0.2
		c0.1,0.1,0.2,0.1,0.4,0.1c0.2,0,0.4-0.1,0.5-0.2c0.2-0.2,0.3-0.6,0.2-0.8c0.1,0,0.1-0.1,0.2-0.1c0.1,0.2,0.4,0.4,0.7,0.4
		c0,0,0.1,0,0.1,0c0.3,0,0.6-0.3,0.6-0.6c0.1,0,0.2,0,0.2,0c0,0.3,0.2,0.6,0.5,0.7c0.1,0,0.2,0.1,0.3,0.1c0.2,0,0.4-0.1,0.5-0.2
		c0.1,0.1,0.1,0.1,0.2,0.2c-0.2,0.3-0.2,0.6,0,0.9h0c0.2,0.2,0.4,0.4,0.7,0.4c0.1,0,0.1,0,0.2,0c0,0.1,0.1,0.2,0.1,0.2
		c-0.3,0.1-0.5,0.4-0.5,0.7c0,0,0,0,0,0c0,0,0,0,0,0c0,0.3,0.2,0.6,0.5,0.7c0,0.1,0,0.2-0.1,0.2c-0.3-0.1-0.6,0.1-0.8,0.3
		c-0.2,0.3-0.2,0.6,0,0.9c-0.1,0.1-0.1,0.1-0.2,0.2c-0.2-0.2-0.6-0.3-0.9-0.1c-0.3,0.1-0.5,0.4-0.5,0.7c-0.1,0-0.2,0-0.2,0
		c-0.1-0.3-0.3-0.5-0.6-0.6c-0.3,0-0.6,0.1-0.8,0.4c-0.1,0-0.2-0.1-0.2-0.1c0.1-0.3,0-0.6-0.2-0.8c-0.2-0.2-0.6-0.2-0.9-0.1
		c0-0.1-0.1-0.1-0.1-0.2c0.2-0.2,0.4-0.5,0.3-0.8c-0.1-0.3-0.4-0.5-0.7-0.6c0,0,0-0.1,0-0.1C26.5,13.7,26.6,13.7,26.6,13.6z"/>
</g>
<g>
	<path class="st0" d="M17.4,19.4c0.1-0.1,0.1-0.3,0-0.4c-0.1-0.1-0.2-0.1-0.3-0.1c0.1-0.1,0.1-0.2,0.1-0.3c0-0.1-0.2-0.3-0.3-0.3
		c0,0,0,0,0,0c-0.2,0-0.3,0.2-0.2,0.3c0,0,0,0.1,0,0.1c0.1,0.1,0.2,0.2,0.3,0.2c0,0,0,0,0,0c0,0,0,0,0,0c0,0,0,0,0,0c0,0,0,0,0,0
		c-0.1,0.1-0.1,0.3,0,0.4C17.1,19.5,17.2,19.5,17.4,19.4C17.4,19.4,17.4,19.4,17.4,19.4z"/>
	<path class="st0" d="M21.8,17.2C21.7,17.2,21.7,17.2,21.8,17.2c-0.2,0-0.3,0-0.4,0.2c0,0.1,0,0.2,0,0.2c0,0.1,0.1,0.1,0.2,0.1
		c0,0,0,0,0,0c0.2,0.1,0.3,0,0.4-0.2C22,17.4,21.9,17.2,21.8,17.2z"/>
	<path class="st0" d="M21,15.8c-0.2-0.1-0.3,0-0.4,0.2c0,0,0,0,0,0c0,0.1,0,0.1,0,0.2c0,0.1,0.1,0.1,0.2,0.2c0.1,0,0.3,0,0.4-0.2
		c0,0,0,0,0,0C21.3,16,21.2,15.8,21,15.8z"/>
	<path class="st0" d="M20.8,18.7C20.8,18.7,20.8,18.7,20.8,18.7c-0.1-0.1-0.3-0.2-0.4-0.1c-0.1,0.1-0.2,0.2-0.1,0.4c0,0,0,0,0,0
		c0,0,0,0,0,0c0.1,0.1,0.3,0.2,0.4,0.1C20.8,19,20.9,18.8,20.8,18.7z"/>
	<path class="st0" d="M18.3,19.9c0.2,0,0.3-0.1,0.3-0.3c0,0,0,0,0,0c0-0.2-0.1-0.3-0.3-0.3c-0.2,0-0.3,0.1-0.3,0.3c0,0,0,0,0,0
		c0,0.1,0,0.1,0,0.1C18,19.8,18.1,19.9,18.3,19.9z"/>
	<path class="st0" d="M19.7,19.3C19.7,19.3,19.7,19.3,19.7,19.3c-0.1-0.2-0.2-0.2-0.4-0.2c-0.2,0.1-0.2,0.2-0.2,0.4c0,0,0,0,0,0
		c0,0,0,0,0,0c0.1,0.1,0.2,0.2,0.4,0.1c0,0,0,0,0,0C19.7,19.6,19.8,19.5,19.7,19.3z"/>
	<path class="st0" d="M18.9,19.8c0.2,0,0.3-0.2,0.2-0.3c0,0,0,0,0,0c0-0.2-0.2-0.3-0.3-0.2c-0.2,0-0.3,0.2-0.2,0.3c0,0,0,0,0,0
		c0,0,0,0.1,0,0.1C18.7,19.8,18.8,19.9,18.9,19.8z"/>
	<path class="st0" d="M20.1,19.4C20.1,19.4,20.1,19.4,20.1,19.4c0.2-0.1,0.2-0.3,0.1-0.4c0,0,0,0,0,0c-0.1-0.1-0.3-0.2-0.4-0.1
		c0,0,0,0,0,0c-0.1,0.1-0.2,0.2-0.1,0.4c0,0,0,0,0,0C19.8,19.4,20,19.5,20.1,19.4C20.1,19.4,20.1,19.4,20.1,19.4z"/>
	<path class="st0" d="M17.6,19.8c0.2,0.1,0.3,0,0.4-0.2c0,0,0,0,0,0c0-0.1,0-0.3-0.2-0.4c-0.1,0-0.3,0-0.4,0.2c0,0,0,0,0,0
		c0,0.1,0,0.2,0,0.2C17.4,19.7,17.5,19.8,17.6,19.8z"/>
	<path class="st0" d="M16.7,18.2c0,0.1,0.1,0.1,0.2,0.1c0,0,0,0,0,0c0.1,0,0.3-0.1,0.3-0.2c0-0.1,0-0.3-0.2-0.4c0,0,0,0,0,0
		c-0.2-0.1-0.3,0-0.4,0.2C16.6,18.1,16.6,18.1,16.7,18.2z"/>
	<path class="st0" d="M22,16.8c0-0.2-0.2-0.3-0.3-0.2c0,0,0,0,0,0c0,0,0,0,0,0c0,0,0,0,0,0c0,0,0,0,0,0c0.1-0.1,0.1-0.3,0-0.4
		c-0.1-0.1-0.3-0.1-0.4,0c0,0,0,0,0,0c-0.1,0.1-0.1,0.2,0,0.3c0,0,0,0.1,0.1,0.1c0.1,0.1,0.2,0.1,0.3,0.1c-0.1,0.1-0.1,0.2-0.1,0.3
		c0,0.1,0.2,0.3,0.3,0.2c0,0,0,0,0,0C21.9,17.1,22,17,22,16.8z"/>
	<path class="st0" d="M18.3,16.5C18.3,16.5,18.3,16.5,18.3,16.5c0.1,0.1,0.3,0.2,0.4,0.1c0.1-0.1,0.2-0.2,0.1-0.4c0,0,0,0,0,0
		c-0.1-0.1-0.3-0.2-0.4-0.1C18.3,16.2,18.3,16.4,18.3,16.5z"/>
	<path class="st0" d="M19.7,15.7c-0.2,0-0.3,0.2-0.2,0.3c0,0,0,0,0,0c0,0,0,0,0,0.1c0.1,0.1,0.2,0.2,0.3,0.2c0.2,0,0.3-0.2,0.2-0.3
		c0,0,0,0,0,0C20,15.8,19.8,15.7,19.7,15.7z"/>
	<path class="st0" d="M18.9,16.2C18.9,16.2,18.9,16.2,18.9,16.2C18.9,16.3,18.9,16.3,18.9,16.2c0.1,0.2,0.2,0.2,0.4,0.2
		c0.2-0.1,0.2-0.2,0.2-0.4c0,0,0,0,0,0c-0.1-0.2-0.2-0.2-0.4-0.2c0,0,0,0,0,0C18.9,15.9,18.8,16.1,18.9,16.2z"/>
	<path class="st0" d="M17.8,16.8C17.8,16.8,17.8,16.8,17.8,16.8C17.8,16.9,17.8,16.9,17.8,16.8c0.1,0.2,0.3,0.2,0.4,0.1
		c0.1-0.1,0.2-0.3,0.1-0.4c0,0,0,0,0,0c-0.1-0.1-0.3-0.2-0.4-0.1C17.8,16.5,17.7,16.7,17.8,16.8z"/>
	<path class="st0" d="M17.3,17.2C17.4,17.2,17.4,17.3,17.3,17.2C17.4,17.3,17.4,17.3,17.3,17.2c0.2,0.2,0.4,0.2,0.5,0.1
		c0.1-0.1,0.1-0.3,0-0.4c0,0,0,0,0,0c-0.1-0.1-0.3-0.1-0.4,0C17.3,17,17.3,17.1,17.3,17.2z"/>
	<path class="st0" d="M16.9,17.7c0,0,0.1,0.1,0.1,0.1c0,0,0,0,0,0c0.1,0.1,0.3,0,0.4-0.1c0.1-0.1,0.1-0.3-0.1-0.4c0,0,0,0,0,0
		c-0.1-0.1-0.3-0.1-0.4,0.1C16.9,17.5,16.9,17.6,16.9,17.7z"/>
	<path class="st0" d="M21.2,18.3C21.2,18.3,21.2,18.3,21.2,18.3c-0.1-0.1-0.3-0.1-0.4,0c-0.1,0.1-0.1,0.2-0.1,0.3c0,0,0,0,0,0.1
		c0,0,0,0,0,0c0.1,0.1,0.3,0.1,0.4,0C21.3,18.6,21.3,18.4,21.2,18.3z"/>
	<path class="st0" d="M21.6,17.8C21.6,17.8,21.6,17.8,21.6,17.8c-0.2-0.1-0.3-0.1-0.4,0.1c-0.1,0.1-0.1,0.2,0,0.3c0,0,0,0.1,0.1,0.1
		c0,0,0,0,0,0c0.1,0.1,0.3,0.1,0.4-0.1C21.7,18,21.7,17.9,21.6,17.8z"/>
	<path class="st0" d="M20.3,15.6c-0.2,0-0.3,0.1-0.3,0.3c0,0,0,0,0,0c0,0,0,0.1,0,0.1c0,0.1,0.1,0.2,0.3,0.2c0.2,0,0.3-0.1,0.3-0.3
		c0,0,0,0,0,0C20.6,15.8,20.5,15.7,20.3,15.6z"/>
	<path class="st0" d="M16.7,19.1l-0.4,1.1l-1.1-0.4l0.4-1.1L16.7,19.1z"/>
</g>
<g>
	<path class="st0" d="M43.4,18.2c-0.1,0-0.2,0.1-0.2,0.2c0,0,0,0,0,0c0,0,0,0,0,0c0-0.1-0.2-0.2-0.3-0.1c-0.1,0-0.2,0.2-0.1,0.3
		c0,0,0,0,0,0c0,0,0,0,0,0c-0.1-0.1-0.2-0.1-0.3,0c-0.1,0.1-0.1,0.2,0,0.3c0,0,0,0,0,0c0,0,0,0,0,0c-0.1-0.1-0.2,0-0.3,0.1
		c-0.1,0.1,0,0.2,0.1,0.3c0,0,0,0,0,0c-0.1,0-0.2,0-0.3,0.1c-0.1,0.1,0,0.2,0.1,0.3c-0.1,0-0.2,0-0.3,0.2c0,0.1,0,0.2,0.2,0.3
		c-0.1,0-0.2,0.1-0.3,0.2c0,0.1,0.1,0.2,0.2,0.3c-0.1,0-0.2,0.1-0.2,0.2c0,0,0,0,0,0c0,0.1,0.1,0.2,0.2,0.2c-0.1,0-0.2,0.1-0.2,0.2
		c0,0.1,0.1,0.2,0.2,0.2c-0.1,0-0.2,0.1-0.2,0.3c0,0.1,0.1,0.2,0.3,0.2c-0.1,0-0.2,0.2-0.2,0.3c0,0.1,0.2,0.2,0.3,0.2
		c-0.1,0.1-0.2,0.2-0.1,0.3c0.1,0.1,0.2,0.2,0.3,0.1c0,0,0,0,0,0c0,0,0,0,0,0c-0.1,0.1-0.1,0.2-0.1,0.3c0.1,0.1,0.2,0.1,0.3,0.1
		c0,0,0,0,0,0c0,0,0,0,0,0c-0.1,0.1-0.1,0.2,0,0.3c0.1,0.1,0.2,0.1,0.3,0c0,0,0,0,0,0c0,0,0,0,0,0c0,0.1,0,0.2,0.1,0.3
		c0.1,0,0.2,0,0.3-0.1c0,0,0,0,0,0c0,0,0,0,0,0c0,0.1,0.1,0.2,0.2,0.2c0,0,0,0,0,0c0.1,0,0.2-0.1,0.2-0.2c0,0,0,0,0,0c0,0,0,0,0,0
		c0.1,0.1,0.2,0.1,0.3,0.1c0.1-0.1,0.1-0.2,0.1-0.3c0,0,0,0,0,0c0,0,0,0,0,0c0.1,0.1,0.2,0.1,0.3,0c0.1-0.1,0.1-0.2,0-0.3
		c0,0,0,0,0,0c0,0,0,0,0,0c0.1,0.1,0.2,0,0.3-0.1c0.1-0.1,0-0.2-0.1-0.3c0,0,0,0,0,0l0,0c0.1,0,0.2,0,0.3-0.1c0-0.1,0-0.2-0.1-0.3
		c0,0,0,0,0,0c0.1,0,0.2,0,0.3-0.2c0-0.1,0-0.2-0.2-0.3c0.1,0,0.2-0.1,0.2-0.2c0-0.1-0.1-0.2-0.2-0.2c0.1,0,0.2-0.1,0.2-0.2
		c0,0,0,0,0,0c0,0,0,0,0,0c0-0.1-0.1-0.2-0.2-0.2c0.1,0,0.2-0.1,0.2-0.2c0-0.1-0.1-0.2-0.2-0.2c0.1,0,0.2-0.1,0.2-0.3
		c0-0.1-0.1-0.2-0.3-0.2v0c0.1,0,0.2-0.2,0.1-0.3c0-0.1-0.2-0.2-0.3-0.1c0,0,0,0,0,0c0.1-0.1,0.1-0.2,0.1-0.3
		c-0.1-0.1-0.2-0.1-0.3-0.1c0,0,0,0,0,0c0,0,0,0,0,0c0.1-0.1,0.1-0.2,0-0.3c-0.1-0.1-0.2-0.1-0.3,0c0,0,0,0,0,0c0,0,0,0,0,0
		c0.1-0.1,0-0.2-0.1-0.3c-0.1-0.1-0.2,0-0.3,0.1c0,0,0,0,0,0c0,0,0,0,0,0C43.6,18.3,43.6,18.2,43.4,18.2z M43.7,18.7
		c0.1,0.1,0.2,0,0.3,0c-0.1,0.1-0.1,0.2,0,0.3c0.1,0.1,0.2,0.1,0.3,0c-0.1,0.1-0.1,0.2-0.1,0.3c0.1,0.1,0.2,0.1,0.3,0.1
		c-0.1,0.1-0.1,0.2-0.1,0.3c0,0.1,0.2,0.2,0.3,0.1c-0.1,0-0.2,0.1-0.1,0.3c0,0.1,0.1,0.2,0.2,0.2c-0.1,0-0.2,0.1-0.2,0.2
		c0,0.1,0.1,0.2,0.2,0.2c-0.1,0-0.2,0.1-0.2,0.2c0,0,0,0,0,0c0,0.1,0.1,0.2,0.2,0.2c-0.1,0-0.2,0.1-0.2,0.2c0,0.1,0.1,0.2,0.2,0.2
		c-0.1,0-0.2,0.1-0.2,0.2c0,0.1,0,0.2,0.1,0.3c-0.1,0-0.2,0-0.3,0.1c0,0.1,0,0.2,0.1,0.3c-0.1,0-0.2,0-0.3,0.1
		c-0.1,0.1,0,0.2,0.1,0.3c-0.1-0.1-0.2,0-0.3,0c-0.1,0.1-0.1,0.2,0,0.3c-0.1-0.1-0.2-0.1-0.3,0c-0.1,0.1-0.1,0.1-0.1,0.2
		c0-0.1-0.1-0.1-0.2-0.1c-0.1,0-0.2,0.1-0.2,0.2c0-0.1-0.1-0.2-0.1-0.2c0,0-0.1,0-0.1,0c-0.1,0-0.1,0-0.2,0.1c0-0.1,0-0.2-0.1-0.3
		c-0.1-0.1-0.2-0.1-0.3,0c0.1-0.1,0.1-0.2,0-0.3c-0.1-0.1-0.2-0.1-0.3-0.1c0.1-0.1,0.1-0.2,0.1-0.3c0-0.1-0.2-0.2-0.3-0.1
		c0.1,0,0.2-0.2,0.1-0.3c0-0.1-0.1-0.2-0.3-0.2c0.1,0,0.2-0.1,0.2-0.3c0-0.1-0.1-0.2-0.2-0.2c0.1,0,0.2-0.1,0.2-0.2
		c0-0.1-0.1-0.2-0.2-0.2c0.1,0,0.2-0.1,0.2-0.2c0-0.1-0.1-0.2-0.2-0.2c0.1,0,0.2-0.1,0.2-0.2v0c0-0.1-0.1-0.2-0.2-0.3
		c0.1,0,0.2,0,0.2-0.2c0-0.1,0-0.2-0.1-0.3c0.1,0,0.2,0,0.3-0.1c0-0.1,0-0.2-0.1-0.3c0.1,0,0.2,0,0.3-0.1c0.1-0.1,0-0.2,0-0.3
		c0.1,0.1,0.2,0.1,0.3,0c0.1-0.1,0.1-0.2,0.1-0.3c0.1,0.1,0.2,0.1,0.3,0.1c0.1,0,0.1-0.1,0.1-0.2c0,0.1,0.1,0.1,0.2,0.2
		c0.1,0,0.2,0,0.2-0.1C43.6,18.6,43.6,18.7,43.7,18.7z"/>
</g>
<g>
	<path class="st0" d="M20.2,26.5L20.2,26.5l0.5-0.1l-0.7-2l-0.5,0.2l0.1,0.2c0,0-1.6,0.6-2.3,0.6c0,0-0.3,0.8-0.6,1
		c0.2,0.2,1.2,0.7,1.2,0.7L20.2,26.5z M19.2,25.5c0.2-0.1,0.3,0,0.4,0.2c0.1,0.2,0,0.3-0.2,0.4c-0.2,0.1-0.3,0-0.4-0.2
		C19,25.8,19.1,25.6,19.2,25.5z M18.2,25.8c0.2-0.1,0.4,0,0.4,0.2c0.1,0.2,0,0.4-0.2,0.4c-0.2,0.1-0.4,0-0.4-0.2
		C18,26,18.1,25.8,18.2,25.8z"/>
	<path class="st0" d="M21,26.4c0,0,0.9-0.5,0.5-1.4c-0.3-0.9-1.3-0.7-1.3-0.7L21,26.4z"/>
	<path class="st0" d="M24,24c0,0-1-0.7-1-0.7s-0.5,0.3-2,0.7c0,0,0.5,0.4,0.7,1c0.2,0.7,0.1,1,0.1,1c0,0,1.9-0.8,1.9-1
		C23.7,25,23.9,24,24,24z M22.7,24.9c-0.2,0.1-0.3,0-0.4-0.2c-0.1-0.2,0-0.3,0.2-0.4c0.2-0.1,0.3,0,0.4,0.2
		C22.9,24.7,22.9,24.8,22.7,24.9z"/>
	<path class="st0" d="M21,28.3c0.2,0.1,0.4,0.1,0.5,0.1l-0.2-0.4c0,0-0.1,0-0.1,0c-0.2-0.1-0.3-0.3-0.2-0.5c0.1-0.2,0.3-0.3,0.5-0.2
		c0.2,0.1,0.3,0.3,0.2,0.5c0,0,0,0.1-0.1,0.1l0.2,0.4c0.2-0.1,0.3-0.2,0.4-0.4c0.2-0.5,0-1-0.5-1.2c-0.5-0.2-1,0-1.2,0.5
		C20.3,27.5,20.5,28,21,28.3z"/>
</g>
<g>
	<path class="st0" d="M33.2,19.9c0.6-0.3-0.3-1.2-1.3-2.3c-1-1,0.6,1.8,0,1.7c-1.2-0.1-1.3-0.9-2.2,0.1c-0.1,0.2-0.1,0.4,0.1,0.5
		l1.2,1.5c0.1,0.1,0.3,0.2,0.5,0.2C32.4,21.5,32.2,20.3,33.2,19.9z M30.4,20.7c0-0.1,0-0.1,0-0.2c0.1,0,0.1,0,0.2,0
		c0,0.1,0,0.1,0,0.2C30.6,20.7,30.5,20.7,30.4,20.7z M31,20.2c0-0.5-0.4-1.1-0.9-0.9c0.7-0.7,1.2,0.5,1.7,0.4c0.8-0.1-0.1-2.2,0-1.9
		c0.3,0.6,1.9,1.6,1.4,1.9c-0.7,0.3-0.9,1.3-1.4,1.6C31.9,20.8,31.5,20.3,31,20.2z"/>
	<path class="st0" d="M29.6,20.1c-0.1-0.1-0.1-0.2-0.1-0.4c-0.4,0.7,0,1.7,0,1.7s0.9,0.6,1.7,0.4c-0.1,0-0.2-0.1-0.3-0.2L29.6,20.1z
		"/>
</g>
<g>
	<path class="st0" d="M42.5,9.9c0-0.1-0.1-0.1-0.2-0.1c-0.1,0-0.1,0.1-0.1,0.1c0-0.1-0.1-0.1-0.1-0.1c-0.1,0-0.2,0-0.2,0.1
		c0,0,0,0,0,0c0,0.1,0,0.2,0.1,0.2c0,0,0,0,0.1,0c0.1,0,0.1,0,0.2-0.1c0,0,0,0,0,0c0,0,0,0,0,0c0,0,0,0,0,0c0,0,0,0,0,0
		c0,0.1,0.1,0.1,0.2,0.1C42.5,10.1,42.5,10,42.5,9.9C42.5,9.9,42.5,9.9,42.5,9.9z"/>
	<path class="st0" d="M42.5,7.2C42.5,7.2,42.5,7.2,42.5,7.2c-0.1,0.1-0.1,0.2,0,0.2c0,0,0.1,0,0.1,0c0,0,0.1,0,0.1,0c0,0,0,0,0,0
		c0.1-0.1,0.1-0.2,0-0.2C42.7,7.1,42.5,7.1,42.5,7.2z"/>
	<path class="st0" d="M41.6,7.2c-0.1,0.1-0.1,0.2,0,0.2c0,0,0,0,0,0c0,0,0.1,0,0.1,0c0,0,0.1,0,0.1,0c0.1-0.1,0.1-0.2,0-0.2
		c0,0,0,0,0,0C41.8,7.1,41.6,7.1,41.6,7.2z"/>
	<path class="st0" d="M43,8C43,8,43,8,43,8c-0.1,0-0.2,0.1-0.1,0.2c0,0.1,0.1,0.1,0.2,0.1c0,0,0,0,0,0c0,0,0,0,0,0
		c0.1,0,0.2-0.1,0.1-0.2C43.2,8.1,43.1,8,43,8z"/>
	<path class="st0" d="M42.9,9.6c0-0.1,0-0.2-0.1-0.2c0,0,0,0,0,0c-0.1,0-0.2,0-0.2,0.1c0,0.1,0,0.2,0.1,0.2c0,0,0,0,0,0
		c0,0,0.1,0,0.1,0C42.9,9.7,42.9,9.7,42.9,9.6z"/>
	<path class="st0" d="M43,8.7C43,8.7,43,8.7,43,8.7c-0.1,0-0.2,0.1-0.2,0.1c0,0.1,0,0.2,0.1,0.2c0,0,0,0,0,0c0,0,0,0,0,0
		c0.1,0,0.2-0.1,0.2-0.1c0,0,0,0,0,0C43.2,8.8,43.1,8.7,43,8.7z"/>
	<path class="st0" d="M43.1,9.3c0-0.1,0-0.2-0.1-0.2c0,0,0,0,0,0c-0.1,0-0.2,0-0.2,0.1c0,0.1,0,0.2,0.1,0.2c0,0,0,0,0,0c0,0,0,0,0,0
		C43,9.4,43.1,9.3,43.1,9.3z"/>
	<path class="st0" d="M43.2,8.6C43.2,8.6,43.2,8.6,43.2,8.6c0-0.1-0.1-0.2-0.2-0.2c0,0,0,0,0,0c-0.1,0-0.2,0.1-0.2,0.2c0,0,0,0,0,0
		c0,0.1,0.1,0.2,0.2,0.2c0,0,0,0,0,0C43.1,8.7,43.2,8.6,43.2,8.6C43.2,8.6,43.2,8.6,43.2,8.6z"/>
	<path class="st0" d="M42.7,9.9c0.1-0.1,0.1-0.2,0-0.2c0,0,0,0,0,0c-0.1-0.1-0.2-0.1-0.2,0c-0.1,0.1-0.1,0.2,0,0.2c0,0,0,0,0,0
		c0,0,0.1,0,0.1,0C42.6,10,42.7,10,42.7,9.9z"/>
	<path class="st0" d="M41.7,10c0,0,0.1,0,0.1,0c0,0,0,0,0,0c0.1-0.1,0.1-0.2,0-0.2c-0.1-0.1-0.2-0.1-0.2,0c0,0,0,0,0,0
		c-0.1,0.1-0.1,0.2,0,0.2C41.6,10,41.7,10,41.7,10z"/>
	<path class="st0" d="M42.4,7c-0.1,0-0.2,0-0.2,0.1c0,0,0,0,0,0c0,0,0,0,0,0c0,0,0,0,0,0c0,0,0,0,0,0C42.1,7,42,6.9,41.9,7
		c-0.1,0-0.1,0.1-0.1,0.2c0,0,0,0,0,0c0,0.1,0.1,0.1,0.1,0.1c0,0,0,0,0.1,0c0.1,0,0.1-0.1,0.1-0.1c0,0.1,0.1,0.1,0.1,0.1
		c0.1,0,0.2,0,0.2-0.1c0,0,0,0,0,0C42.5,7.1,42.5,7,42.4,7z"/>
	<path class="st0" d="M41.3,8.7C41.3,8.7,41.3,8.7,41.3,8.7c0.1,0,0.2-0.1,0.2-0.2c0-0.1-0.1-0.2-0.2-0.2c0,0,0,0,0,0
		c-0.1,0-0.2,0.1-0.2,0.2C41.1,8.7,41.2,8.7,41.3,8.7z"/>
	<path class="st0" d="M41.2,7.8c0,0.1,0,0.2,0.1,0.2c0,0,0,0,0,0c0,0,0,0,0,0c0.1,0,0.1,0,0.2-0.1c0-0.1,0-0.2-0.1-0.2c0,0,0,0,0,0
		C41.3,7.7,41.2,7.8,41.2,7.8z"/>
	<path class="st0" d="M41.3,8.4C41.3,8.4,41.3,8.4,41.3,8.4C41.3,8.4,41.3,8.4,41.3,8.4c0.1,0,0.2-0.1,0.2-0.1c0-0.1,0-0.2-0.1-0.2
		c0,0,0,0,0,0c-0.1,0-0.2,0.1-0.2,0.1c0,0,0,0,0,0C41.1,8.3,41.2,8.4,41.3,8.4z"/>
	<path class="st0" d="M41.3,9.1C41.3,9.1,41.3,9.1,41.3,9.1C41.3,9.1,41.3,9.1,41.3,9.1c0.1,0,0.2-0.1,0.2-0.2
		c0-0.1-0.1-0.2-0.2-0.1c0,0,0,0,0,0c-0.1,0-0.2,0.1-0.1,0.2C41.1,9,41.2,9.1,41.3,9.1z"/>
	<path class="st0" d="M41.4,9.4C41.4,9.4,41.4,9.4,41.4,9.4C41.4,9.4,41.4,9.4,41.4,9.4c0.1,0,0.2-0.1,0.2-0.2
		c0-0.1-0.1-0.1-0.2-0.1c0,0,0,0,0,0c-0.1,0-0.1,0.1-0.1,0.2C41.2,9.3,41.3,9.4,41.4,9.4z"/>
	<path class="st0" d="M41.5,9.7C41.5,9.7,41.6,9.7,41.5,9.7C41.6,9.7,41.6,9.7,41.5,9.7c0.2-0.1,0.2-0.2,0.1-0.2
		c0-0.1-0.1-0.1-0.2-0.1c0,0,0,0,0,0c-0.1,0-0.1,0.1-0.1,0.2C41.4,9.7,41.4,9.7,41.5,9.7z"/>
	<path class="st0" d="M42.9,7.7C42.9,7.7,42.9,7.7,42.9,7.7c-0.1,0-0.1,0.1-0.1,0.2c0,0.1,0.1,0.1,0.2,0.1c0,0,0,0,0,0c0,0,0,0,0,0
		c0.1,0,0.1-0.1,0.1-0.2C43.1,7.7,43,7.7,42.9,7.7z"/>
	<path class="st0" d="M42.7,7.4C42.7,7.4,42.7,7.4,42.7,7.4c-0.1,0.1-0.1,0.1-0.1,0.2c0,0.1,0.1,0.1,0.1,0.1c0,0,0,0,0.1,0
		c0,0,0,0,0,0c0.1,0,0.1-0.1,0.1-0.2C42.9,7.4,42.8,7.4,42.7,7.4z"/>
	<path class="st0" d="M41.4,7.5c0,0.1,0,0.2,0.1,0.2c0,0,0,0,0,0c0,0,0,0,0.1,0c0.1,0,0.1,0,0.1-0.1c0-0.1,0-0.2-0.1-0.2
		c0,0,0,0,0,0C41.5,7.4,41.4,7.4,41.4,7.5z"/>
	<path class="st0" d="M42.2,10.2l0.5,0.5l-0.5,0.5l-0.5-0.5L42.2,10.2z"/>
</g>
<g>
	<path class="st0" d="M16.7,29.3h-1.1v0.2c0,0.3-0.2,0.5-0.5,0.5h-0.2c-0.3,0-0.5-0.2-0.5-0.5v-0.2h-1c-0.1,0-0.1,0-0.2,0
		c0,0.1,0,0.2,0,0.4c0,0.3,0.2,0.5,0.6,0.5h2.9c0.3,0,0.6-0.3,0.6-0.6c0,0,0-0.2,0-0.4c0-0.2,0-0.4-0.1-0.5l0,0.2
		c0,0.1,0,0.2-0.1,0.3C17,29.3,16.8,29.3,16.7,29.3z"/>
	<path class="st0" d="M16.3,27.2c-0.1-0.1-0.2-0.1-0.2-0.2c-0.1-0.2-0.3-0.4-0.8-0.8c-0.7-0.5-1.2,0-1.5,0.5
		c-0.1,0.2-0.2,0.3-0.4,0.4c-0.4,0.3-0.2,1.1-0.1,1.4c0,0.1-0.1,0.3-0.1,0.5c0,0.2,0,0.3,0.2,0.3h1.2c0,0.1,0,0.2,0,0.3
		c0,0.2,0.2,0.4,0.4,0.4h0.2c0.2,0,0.4-0.2,0.4-0.4v-0.3h1.2c0.2,0,0.3-0.1,0.3-0.3l0-0.4l0,0C17.2,27.9,16.7,27.4,16.3,27.2z
		 M15.3,29.6h-0.6v-0.3h0.6V29.6z M16.9,28.3l-3.5,0c-0.1-0.3-0.3-1,0-1.2c0.1-0.1,0.3-0.3,0.4-0.4c0.4-0.4,0.7-0.9,1.3-0.4
		c0.5,0.4,0.7,0.6,0.8,0.8c0.1,0.1,0.1,0.2,0.3,0.3C16.5,27.5,17,27.8,16.9,28.3z"/>
</g>
<g>
	<g>
		<path class="st0" d="M5.3,3.3L4.7,3.8L4.5,3.5C4.3,3.2,3.9,3.2,3.7,3.4C3.4,3.6,3.4,4,3.6,4.2l0.2,0.2L3.1,4.9L5,7.7l2.5-1.9
			L5.3,3.3z M3.7,4.2C3.5,4,3.5,3.7,3.8,3.5C4,3.3,4.2,3.4,4.4,3.6l0.2,0.2L3.9,4.4L3.7,4.2z"/>
	</g>
</g>
<path class="st0" d="M36.3,43.8c-0.1,0.1-0.3-0.3-0.1-0.8c0.1-0.2,0.2-0.5,0.4-0.8c0.3-0.4,0.5-0.8,0.4-1.1
	c-0.1-0.4-0.4-0.6-0.6-0.7c0,0-0.1,0-0.1,0c0,0,0-0.1,0.1-0.2c0.1-0.1,0.1-0.1,0.1-0.1c0.4,0.2,0.6,0.4,0.7,0.5
	c0.3,0.4,0.3,0.9,0,1.3c-0.6,0.8-0.9,1.4-0.8,1.7c0,0,0,0,0,0"/>
<path class="st0" d="M37,40.1c-0.2-0.2-0.2-0.4,0-0.6c0.2-0.2,0.6-0.2,1.1-0.1c0.3,0.1,0.6,0.1,0.8-0.2c0.2-0.2,0.3-0.4,0.5-0.6
	c0.1-0.2,0.3-0.3,0.4-0.5c0.2-0.2,0.4-0.1,0.3,0.1c-0.1,0.1-0.2,0.2-0.3,0.4c0,0.1-0.1,0.1-0.1,0.2c-0.3,0.4-0.9,1.1-1,1.6
	c-0.1,0.4-0.1,0.7-0.1,1.2c0.1,0.7-0.9,1-1,1.1c0,0-0.2,0.1-0.4,0.2c-0.2,0.1-0.3-0.2-0.1-0.5c0.1-0.1,0.2-0.3,0.3-0.5
	c0.3-0.5,0.3-1,0-1.5C37.2,40.3,37.1,40.2,37,40.1L37,40.1z"/>
<path class="st0" d="M36.8,43.6c0.1,0,0-0.1,0.1-0.1c0,0,0.1,0,0.1-0.1c0,0,0.1,0,0.1,0c0.1,0,0.1-0.1,0.1-0.1
	c0.1,0,0.1-0.1,0.2-0.1c0,0,0,0,0.1,0c0.1,0,0-0.1,0.1-0.1c0.1,0,0.1-0.1,0.2-0.1c0,0,0,0,0.1,0c0.1,0,0-0.1,0.1-0.1
	c0.1,0,0.1-0.1,0.2-0.1c0,0,0,0,0.1,0c0.1,0,0-0.1,0-0.1c0.1,0,0.2-0.1,0.2-0.1c0,0,0,0,0.1,0c0.1,0,0-0.1,0-0.1
	c0.3-0.2,0.4-0.4,0.4-0.6c-0.4-1.3,0.1-1.9,0.3-2.3c0.1-0.2,0.5-0.6,0.9-1c0.4-0.3,0.5-1,0.1-1.3c-0.2-0.2-0.3-0.3-0.5-0.4
	c-0.4-0.3-0.8-0.4-0.8-0.4c0-0.1,0-0.1-0.1-0.1c0,0-0.2-0.1-0.3-0.2c-0.2-0.1-0.4-0.2-0.5-0.2c0,0-0.1,0.1-0.1,0.1
	c-0.1,0.2-0.6,1-1,1.7c-0.3,0.4-0.4,0.8-0.3,0.9c0.1,0.1,0.2,0.1,0.2,0.1c0,0,0,0.2-0.1,0.3c-0.1,0.1-1.7,1.7-2.1,2.3
	c-0.8,1.2-1.2,3-1.7,4.5"/>
<path class="st0" d="M35.1,44.7c0-0.3,0.2-1,0.9-2.2c0.2-0.3,0.7-0.8,0.6-1.3c-0.1-0.5-0.5-0.7-0.5-0.8c0.1-0.1,0.1-0.1,0.1-0.1
	c0,0,0,0,0.1,0.1c0,0,0.1,0,0.1,0.1c0.2,0.1,0.5,0.3,0.6,0.6c0,0.3-0.1,0.6-0.4,1c-1,1.5-0.4,1.9-0.4,2"/>
<path id="path3794_4_" class="st0" d="M36.6,40.3C36.7,40.2,36.7,40.2,36.6,40.3c-0.1-0.1-0.1-0.1-0.1-0.1
	C36.5,40.2,36.5,40.3,36.6,40.3C36.6,40.3,36.6,40.3,36.6,40.3"/>
<path id="path3796_4_" class="st0" d="M36.9,40.4C36.9,40.4,36.9,40.4,36.9,40.4c-0.1-0.1-0.1-0.1-0.1-0.1
	C36.7,40.4,36.7,40.4,36.9,40.4C36.8,40.5,36.9,40.5,36.9,40.4"/>
<path id="path3798_4_" class="st0" d="M37.1,40.6C37.1,40.6,37.1,40.6,37.1,40.6C37,40.5,37,40.5,37,40.6
	C36.9,40.6,36.9,40.6,37.1,40.6C37,40.7,37,40.7,37.1,40.6"/>
<path id="path3800_4_" class="st0" d="M37.2,40.9C37.2,40.8,37.2,40.8,37.2,40.9c-0.1-0.1-0.1-0.1-0.1-0.1
	C37.1,40.8,37.1,40.9,37.2,40.9C37.2,40.9,37.2,40.9,37.2,40.9"/>
<path id="path3802_4_" class="st0" d="M37.3,41.2C37.3,41.1,37.3,41.1,37.3,41.2c-0.1-0.1-0.1-0.1-0.1-0.1
	C37.2,41.1,37.2,41.2,37.3,41.2C37.2,41.2,37.3,41.2,37.3,41.2"/>
<path id="path3804_4_" class="st0" d="M37.1,41.4C37.1,41.4,37.1,41.5,37.1,41.4c0.1,0.1,0.1,0.1,0.1,0.1
	C37.3,41.4,37.3,41.4,37.1,41.4C37.2,41.4,37.2,41.4,37.1,41.4"/>
<path id="path3806_4_" class="st0" d="M37,41.7C37,41.7,37,41.7,37,41.7c0.1,0.1,0.1,0.1,0.1,0.1C37.2,41.7,37.1,41.7,37,41.7
	C37.1,41.6,37,41.6,37,41.7"/>
<path id="path3808_4_" class="st0" d="M36.9,41.9C36.9,41.9,36.9,42,36.9,41.9C36.9,42,37,42,37,42C37,42,37,41.9,36.9,41.9
	C36.9,41.9,36.9,41.9,36.9,41.9"/>
<path id="path3810_4_" class="st0" d="M36.7,42.2C36.7,42.2,36.7,42.2,36.7,42.2c0.1,0.1,0.1,0.1,0.1,0.1
	C36.8,42.2,36.8,42.2,36.7,42.2C36.8,42.1,36.7,42.1,36.7,42.2"/>
<path id="path3812_4_" class="st0" d="M36.5,42.4C36.5,42.4,36.5,42.5,36.5,42.4c0.1,0.1,0.1,0.1,0.1,0.1
	C36.7,42.5,36.6,42.4,36.5,42.4C36.6,42.4,36.5,42.4,36.5,42.4"/>
<path id="path3814_4_" class="st0" d="M36.4,42.7C36.4,42.7,36.4,42.7,36.4,42.7c0.1,0.1,0.1,0.1,0.1,0.1
	C36.5,42.7,36.5,42.7,36.4,42.7C36.4,42.6,36.4,42.6,36.4,42.7"/>
<path id="path3816_4_" class="st0" d="M36.3,42.9C36.2,42.9,36.3,43,36.3,42.9c0.1,0.1,0.1,0.1,0.1,0.1C36.4,43,36.4,42.9,36.3,42.9
	C36.3,42.9,36.3,42.9,36.3,42.9"/>
<path id="path3818_4_" class="st0" d="M36.2,43.2C36.2,43.2,36.2,43.2,36.2,43.2c0.1,0.1,0.1,0.1,0.1,0.1
	C36.3,43.2,36.3,43.2,36.2,43.2C36.2,43.1,36.2,43.1,36.2,43.2"/>
<path id="path3820_4_" class="st0" d="M36.1,43.4C36.1,43.4,36.1,43.5,36.1,43.4c0.1,0.1,0.1,0.1,0.1,0.1
	C36.3,43.5,36.3,43.4,36.1,43.4C36.2,43.4,36.2,43.4,36.1,43.4"/>
<g>
	<path class="st0" d="M36,32.6c0-0.3,0.6-1.1,0.7-1.2c0.1-0.1,0.1-0.2,0.1-0.2s0-0.1-0.2-0.2c-0.2-0.1-1-0.5-1.2-0.8
		c-0.1-0.3-0.4-0.7-0.4-0.7s-0.3,0-0.3,0.1c0,0.1,0.2,0.5,0.3,0.9c0.1,0.4,0.2,1,0.2,1s0.1,0.6,0.2,1c0.1,0.4,0.1,0.9,0.1,0.9
		c0,0.1,0.3,0,0.3,0S36,32.9,36,32.6z"/>
	<path class="st0" d="M33.3,33.7L33.3,33.7l0-0.4c0,0,0,0,0.1,0c0,0,0-0.5-0.1-0.6c-0.1-0.1-0.1-0.2,0-0.2c0.1,0,0.1-0.1,0-0.2
		c-0.1-0.1,0-0.1,0-0.2c0-0.1-0.2-0.1-0.1-0.2c0.1-0.1,0-0.2,0-0.2c-0.1,0-0.1-0.1-0.1-0.2c0-0.1-0.1-0.6-0.1-0.6c0,0-0.1,0-0.1,0
		l-0.1-0.4l-0.1,0c0-0.2-0.2-0.2-0.2-0.2c-0.2,0.3-0.9,0.5-0.9,0.8c-1.4,0.6-1.4,0.9-1.4,1c0,0,0,0.1,0.1,0.1
		c0.1,0.1,0.3,0.1,0.5,0.2c-0.3,0.3-0.5,0.7-0.5,0.8c0,0,0,0.1,0.1,0.1c0.4,0.1,1.4,0.1,1.7,0.2c0.2,0.2,0.8,0.1,1.1,0.3
		C33.2,33.9,33.3,33.9,33.3,33.7z M30.3,32.2C30.3,32.2,30.2,32.2,30.3,32.2c0-0.2,0.7-0.6,1.3-0.9c0,0,0,0.1,0.1,0.1
		c0,0,0.1,0.1,0.1,0.1c-0.3,0.2-0.6,0.6-0.9,0.9C30.6,32.4,30.4,32.3,30.3,32.2z M31,32.5c0.3-0.3,0.6-0.6,0.9-0.9
		c0.3,0.4,0.3,0.7,0.3,0.7s0.1,0.2,0,0.6C31.9,32.8,31.4,32.7,31,32.5z M30.4,33.3C30.4,33.3,30.4,33.3,30.4,33.3
		C30.4,33.3,30.4,33.3,30.4,33.3c-0.1-0.1,0.1-0.4,0.5-0.8c0.5,0.2,1,0.3,1.3,0.4c0,0.1,0,0.2-0.1,0.3c0,0.1,0,0.1,0,0.2
		C31.7,33.5,30.9,33.4,30.4,33.3z"/>
</g>
<g>
	<path id="path4778_4_" class="st0" d="M41.5,28.2c0.8,0.3,1.3,1.2,1.4,1.8c0.1,0.2,0,0.5-0.2,0.7c-0.7,0.5-1.6-0.3-1.6-0.3
		c-0.7-0.8-0.5-1.5-0.3-1.9C41,28.3,41.3,28.2,41.5,28.2L41.5,28.2z M44.3,31.1c0.6,0.1,1.6,0.3,2.1,1c0.1,0.2,0,0.5-0.1,0.7
		c-0.3,0.3-0.9,0.5-1.6,0.3c-0.2-0.1-0.5-0.3-0.7-0.4c-0.3-0.3-0.6-0.7-0.3-1.2C43.7,31.2,44.1,31.1,44.3,31.1z M40.5,27.7
		c0,0.1,0.1,0.1,0.1,0.1c0.1,0.1,0.1,0.2,0,0.3c0,0.2-0.1,0.4-0.1,0.6c0,0.2,0,0.4,0,0.5c0,0.3,0.1,0.5,0.2,0.8
		c0.1,0.3,0.3,0.4,0.5,0.6c0.2,0.2,0.5,0.3,0.7,0.4c0.2,0,0.5,0,0.7,0c0.1,0,0.3-0.1,0.4-0.2c0.1-0.1,0.2-0.2,0.2-0.2
		c0.2,0,0.4,0.1,0.4,0.3c0,0.1,0,0.1,0,0.2c-0.1,0.1-0.1,0.3-0.2,0.4c-0.1,0.4,0,0.9,0.3,1.2c0.2,0.2,0.5,0.5,0.8,0.6
		c0.5,0.2,1,0.1,1.5,0c0.2,0,0.3-0.1,0.5-0.2c0.1,0,0.3-0.1,0.5-0.1c0,0,0.1,0,0.1,0c0,0.1,0.2,0,0.2-0.1c0,0,0.1,0,0.1-0.1
		c0.1,0,0-0.3-0.2-0.4c-0.6-0.7-1.4-1.2-2.3-1.5c-0.2-0.1-0.4-0.1-0.6-0.2c-0.2,0-0.4-0.1-0.5-0.2c0,0-0.1-0.1-0.1-0.1c0,0,0,0,0,0
		c0,0,0,0,0,0c-0.1-0.1-0.2-0.2-0.3-0.2c-0.1-0.1-0.1-0.2-0.2-0.3c-0.1-0.1-0.1-0.2-0.2-0.3c-0.3-0.5-0.7-1.1-1.1-1.5
		c-0.3-0.3-0.6-0.5-1-0.7c0,0-0.1,0-0.1-0.1c0,0,0,0-0.1,0c0,0-0.1,0-0.1,0c0,0,0,0,0,0c-0.1,0-0.1,0.1-0.1,0.1
		C40.5,27.5,40.5,27.6,40.5,27.7"/>
</g>
<g>
	<path class="st0" d="M34.7,8c0.1,0,0.1-0.1,0-0.2l0.1-0.1l-1-0.1c0-0.1,0-0.1,0-0.2c-0.1-0.1-0.2-0.1-0.2,0c0,0,0,0,0,0.1l-0.2,0
		c0,0-0.1,0-0.1,0.1c0,0,0,0.1,0.1,0.1l0.2,0c0,0,0,0,0,0c0,0,0.1,0.1,0.2,0.1l-0.1,1l0.1-0.1c0,0,0.1,0.1,0.2,0
		c0.7,0.8,1.3,1.7,2.1,2.5c0.1,0.1,0.2,0,0.1-0.1c0,0,0,0,0,0c0.1,0,0.1-0.1,0.1-0.1l-0.1-0.1c0,0,0,0,0,0c-0.6-0.8-1.3-1.6-2-2.4
		l0,0c0.7,0.8,1.3,1.6,2,2.3l0.1,0.1c0.1,0.1,0.2,0,0.1-0.1l-0.1-0.1c-0.7-0.7-1.3-1.6-2-2.3l0,0c0.7,0.8,1.4,1.7,2.1,2.5
		c0.1,0.1,0.2,0,0.1-0.1c-0.7-0.8-1.4-1.7-2.1-2.5l0,0c0.6,0.9,1.3,1.6,2,2.4c0.1,0.1,0.2,0,0.1-0.1C36,9.7,35.2,8.9,34.7,8L34.7,8z
		 M34,8.6L34,8.6c0.7,0.8,1.3,1.5,1.9,2.3C35.2,10.1,34.6,9.3,34,8.6z M33.8,8.4l0.1-0.6l0.6,0.1L33.8,8.4z"/>
	<path class="st0" d="M32.3,9.7c0,0,0.1,0.1,0.2,0c0.7,0.8,1.3,1.7,2.1,2.5c0.1,0.1,0.2,0,0.1-0.1c0,0,0,0,0,0
		c0.1,0,0.1-0.1,0.1-0.1l-0.1-0.1c0,0,0,0,0,0c-0.6-0.8-1.3-1.6-2-2.4l0,0c0.7,0.8,1.3,1.6,2,2.3l0.1,0.1c0.1,0.1,0.2,0,0.1-0.1
		l-0.1-0.1c-0.7-0.7-1.3-1.6-2-2.3l0,0c0.7,0.8,1.4,1.7,2.1,2.5c0.1,0.1,0.2,0,0.1-0.1c-0.7-0.8-1.4-1.7-2.1-2.5l0,0
		c0.6,0.9,1.3,1.6,2,2.4c0.1,0.1,0.2,0,0.1-0.1c-0.7-0.8-1.4-1.6-2-2.4l0,0c0.1,0,0.1-0.1,0-0.2l0.1-0.1l-1-0.1c0-0.1,0-0.1,0-0.2
		c-0.1-0.1-0.2-0.1-0.2,0c0,0,0,0,0,0.1l-0.2,0c0,0-0.1,0-0.1,0.1c0,0,0,0.1,0.1,0.1l0.2,0c0,0,0,0,0,0c0,0,0.1,0.1,0.2,0.1l-0.1,1
		L32.3,9.7z M32.6,9.6L32.6,9.6c0.7,0.8,1.3,1.5,1.9,2.3C33.9,11.2,33.3,10.4,32.6,9.6z M32.5,8.9L33,9l-0.6,0.5L32.5,8.9z"/>
</g>
<g>
	<path class="st0" d="M51.8,8.4c0-0.1,0-0.1,0-0.2c0.2,0,0.3-0.2,0.3-0.4c0-0.2-0.2-0.4-0.4-0.4c-0.2,0-0.4,0.2-0.4,0.4
		c0,0.2,0.1,0.4,0.3,0.4C51.8,8.3,51.8,8.3,51.8,8.4c-0.6,0-1,0.5-1,1c0,0.6,0.5,1,1,1c0.6,0,1-0.5,1-1C52.8,8.9,52.4,8.4,51.8,8.4z
		 M51.7,7.7c-0.1,0-0.1,0.2-0.2,0.1c0-0.1,0-0.2,0.1-0.2c0.1,0,0.2,0,0.3,0.1C52,7.7,51.8,7.6,51.7,7.7z M51.8,9.6
		c-0.3,0-0.5-0.2-0.5-0.5c0-0.3,0.2-0.5,0.5-0.5c0.3,0,0.5,0.2,0.5,0.5C52.4,9.4,52.1,9.6,51.8,9.6z"/>
	<path class="st0" d="M54,7.7c0-0.1,0-0.1,0-0.2c0.2,0,0.3-0.2,0.3-0.4c0-0.2-0.2-0.4-0.4-0.4c-0.2,0-0.4,0.2-0.4,0.4
		c0,0.2,0.1,0.4,0.3,0.4C53.9,7.5,53.9,7.6,54,7.7c-0.6,0-1,0.5-1,1c0,0.6,0.5,1,1,1c0.6,0,1-0.5,1-1C55,8.1,54.5,7.7,54,7.7z
		 M53.8,6.9c-0.1,0-0.1,0.2-0.2,0.1c0-0.1,0-0.2,0.1-0.2c0.1,0,0.2,0,0.3,0.1C54.1,7,54,6.9,53.8,6.9z M54,8.9
		c-0.3,0-0.5-0.2-0.5-0.5c0-0.3,0.2-0.5,0.5-0.5c0.3,0,0.5,0.2,0.5,0.5C54.5,8.6,54.3,8.9,54,8.9z"/>
</g>
<g>
	<path id="path3536_4_" class="st0" d="M6.1,23.6l0.1-0.2c0,0,0.1-0.1,0.1,0c0,0,0,0.1,0,0.1L6.1,23.6c0.1,0.1,0,0.2,0,0.1
		C6,23.6,6,23.6,6.1,23.6z M6.8,23.6c0-0.1,0-0.1-0.1-0.2c-0.1-0.2-0.3-0.4-0.1-0.6c0.2-0.2,0.8-1,1.4-0.9c0.1,0,0.3,0.2,0.4,0.3
		c0.1,0.3,0.3,0.8,0,1.2c-0.1,0.1-0.2,0.3-0.4,0.4c-0.4,0.3-0.8,0.2-1,0.1C6.8,23.9,6.8,23.7,6.8,23.6z M8.7,21.1
		c-0.1-0.5,0.6-1.2,0.8-1.4c0.2-0.2,0.4-0.1,0.6,0c0.1,0,0.1,0.1,0.2,0.1c0.1,0,0.3,0,0.4,0.2c0.2,0.2,0.3,0.7-0.2,1.2
		c-0.5,0.6-1.1,0.5-1.4,0.3C8.9,21.4,8.7,21.2,8.7,21.1L8.7,21.1z M10,19.2l0.1-0.2c0,0,0.1-0.1,0.1,0c0,0,0,0.1,0,0.1L10,19.2
		c0.1,0.1,0,0.2,0,0.1C10,19.3,10,19.3,10,19.2z M6.6,24.1c0.3,0.2,0.9,0.4,1.5-0.1c0.1-0.1,0.3-0.3,0.4-0.4
		c0.2-0.3,0.6-0.9,0.2-1.5c-0.1-0.1-0.2-0.3-0.2-0.4c0,0,0-0.1,0.1-0.1c0,0,0.1-0.1,0.1-0.1c0.1,0,0.2,0.1,0.4,0.1
		c0.4,0.1,1,0.2,1.5-0.4c0,0,1-0.9,0.2-1.9c-0.1-0.1-0.2-0.3-0.2-0.4c0-0.1-0.1-0.2-0.2-0.3c-0.1-0.1-0.1-0.1-0.2-0.1
		c-0.1,0-0.3,0-0.5-0.1c-0.3-0.2-0.7-0.4-1-0.4c-0.1,0-0.4-0.1-0.5,0c-0.1,0-0.2,0.1-0.2,0.4c0,0.1,0,0.1,0,0.2c0,0.1,0.1,0.1,0.2,0
		c0,0,0-0.1,0-0.2c0-0.1,0-0.1,0-0.2c0.2-0.2,0.9,0.3,0.9,0.3l0.3,0.2c0.1,0.1,0.1,0.2,0,0.3c-0.3,0.4-0.9,1-1,1.5
		c0,0.1-0.1,0.4-0.1,0.5c0,0.1-0.1,0.2-0.1,0.3c-0.1,0.1-0.1,0.1-0.2,0.1c-0.1,0-0.4,0.1-0.5,0.2c-0.5,0.2-1.1,0.8-1.4,1.1
		C6,23,5.8,23,5.8,22.9l-0.4-0.5c0,0-0.5-0.7-0.4-0.8c0,0,0.1-0.1,0.2-0.1c0.1,0,0.2,0,0.2,0c0,0,0-0.1-0.1-0.2c0,0-0.1,0-0.2,0
		c-0.3,0-0.4,0.1-0.4,0.3c0,0.1,0,0.4,0.1,0.5c0.2,0.3,0.5,0.8,0.7,1.1c0.1,0.1,0.2,0.2,0.2,0.2c0,0,0,0.1,0,0.2
		c0,0.1,0,0.1,0.1,0.2c0,0,0.2,0.1,0.3,0.2C6.3,24,6.5,24,6.6,24.1"/>
</g>
<g>
	<path class="st0" d="M49.9,26.9c0.2,0.2,0.4,0.3,0.6,0.3c0,0.2,0.1,0.4,0.3,0.6c0.4,0.4,1,0.4,1.3,0c0.3-0.3,0.4-0.7,0.2-1.1
		c0,0,0-0.1-0.1-0.1c0,0,0,0,0,0l0,0c0,0-0.1,0-0.1,0.1c0,0,0,0.1,0,0.1c0.1,0.3,0.1,0.6-0.2,0.8c-0.3,0.3-0.7,0.3-1,0
		c-0.1-0.1-0.2-0.3-0.2-0.4c0.2,0,0.4-0.1,0.5-0.3c0.2-0.1,0.2-0.3,0.3-0.5c0.1,0,0.1,0,0.2,0.1c0,0,0.1,0,0.1,0
		c0.1,0,0.3,0.1,0.4,0.1c0.1,0,0.1-0.1,0-0.1c-0.1,0-0.3-0.1-0.4-0.1c0,0,0-0.1-0.1-0.1c-0.1,0-0.2-0.1-0.3-0.1c0-0.1,0-0.2-0.1-0.3
		c0,0-0.1-0.1-0.1-0.1c0,0,0,0,0,0c0,0-0.1,0-0.1,0.1c0,0,0,0.1,0,0.1c0,0.1,0.1,0.1,0.1,0.2c-0.2,0-0.4,0.1-0.5,0.3
		c-0.2,0.2-0.2,0.3-0.3,0.5c-0.2,0-0.3-0.1-0.4-0.2c-0.3-0.3-0.3-0.7,0-1c0.2-0.2,0.5-0.3,0.8-0.1c0,0,0.1,0,0.1,0
		c0.1,0,0.2,0.1,0.3,0.1c0.1,0,0.1-0.1,0-0.1c-0.1,0-0.2,0-0.3-0.1c0,0,0-0.1-0.1-0.1c-0.4-0.2-0.8-0.1-1.1,0.2
		C49.5,26,49.5,26.5,49.9,26.9z M51.3,26.4c0,0.1-0.1,0.3-0.2,0.4c-0.1,0.1-0.2,0.2-0.4,0.2c0-0.1,0.1-0.3,0.2-0.4
		C51,26.5,51.1,26.4,51.3,26.4z"/>
</g>
<path class="st0" d="M31.3,43.7c-0.1-0.6-0.7-1.4-0.7-1.4l0-0.3c0-0.1-0.2-0.3-0.3-0.3c-0.3-0.1-0.7-0.1-1.2-0.1
	c-0.4,0.1-0.8,0.2-1,0.3c-0.2,0.1-0.3,0.3-0.2,0.4c0,0.2,0,0.3,0,0.3s-0.3,0.5-0.5,1.4"/>
<path class="st0" d="M27.6,41.8c-0.2,0.1-0.2,0.3-0.1,0.4l0.2,0.5l0-0.2c0-0.2,0.1-0.5,0.3-0.6c0.2-0.1,0.5-0.2,1-0.3
	c0.1,0,0.3,0,0.4,0c0.3,0,0.6,0,0.8,0.1c0.2,0,0.4,0.2,0.4,0.4l0,0.2c0,0,0,0,0,0l0-0.6c0-0.2-0.1-0.3-0.3-0.4c-0.3,0-0.8-0.1-1.3,0
	l-0.1-0.2c0,0,0.1-0.1,0.1-0.1c0-0.1-0.1-0.2-0.2-0.2c0,0-0.1,0-0.1,0c0.1,0,0.1,0.1,0.1,0.2c0,0,0,0.1,0,0.1c0,0,0,0,0,0l0,0.1
	c-0.1,0-0.1,0-0.2,0c0,0,0,0,0,0v-0.1c0.1,0,0.1-0.1,0.1-0.2c0-0.1-0.1-0.2-0.2-0.2c-0.1,0-0.2,0.1-0.2,0.2c0,0.1,0.1,0.2,0.1,0.2
	v0.1C28.3,41.5,27.9,41.6,27.6,41.8z"/>
<g>
	<path class="st0" d="M21.7,39.3c-0.1,0.2,0.2,0.3,0.3,0.4C21.9,39.5,21.8,39.4,21.7,39.3C21.7,39.3,21.7,39.3,21.7,39.3z"/>
	<path class="st0" d="M25.4,40.7C25.4,40.7,25.4,40.7,25.4,40.7c-0.4-0.2-0.8-0.9-1-1.5c-0.1-0.5-0.1-0.9-0.1-1.1l0-0.1
		c0-0.1-0.2-0.2-0.5-0.3c-0.4-0.1-0.9-0.1-1.6,0c-0.1,0.1-0.4,0.7-0.6,1.4c0,0,0,0,0,0c0.1,0.1,0.3,0.3,0.4,0.5c0,0,0,0,0,0.1
		c0,0.1,0.2,0.2,0.5,0.2c0.1,0,0.1,0,0.1,0c0.1,0,0.3-0.2,0.5-0.1c0.2,0,0.4,0.1,0.5,0.3c0.5,0.5,1.9,2.4,2,2.4c0,0,0,0,0,0
		c0,0,0.1,0,0.2-0.2c0,0,0.1-0.1,0.1-0.1c0.2-0.3,0.5-0.7,0.2-1.3c-0.3-0.6,0-2.4,0.1-2.7l-0.2,0C26,38.6,25.8,40.5,25.4,40.7
		C25.5,40.7,25.5,40.7,25.4,40.7z"/>
</g>
<g>
	<path class="st0" d="M49.6,19.4l-0.8-0.7c-0.3-0.2-0.7-0.2-0.9,0.1l-1.1,1.4c-0.2,0.3-0.2,0.7,0.1,0.9l0.8,0.6
		c-0.2,0.4-0.4,1.2-0.2,1.4c0.2,0.2,0.6,0,1.1-0.4l0,0l0,0c-0.1-0.3,0.3-1,0.8-1.7c0.5-0.6,1.1-1.1,1.4-1.1l0,0l0,0
		c0.3-0.5,0.3-0.9,0.1-1.1C50.7,18.8,50.1,19,49.6,19.4z M47.7,21.9L47.7,21.9C47.7,21.9,47.7,21.9,47.7,21.9z"/>
</g>
<g>
	<path class="st0" d="M53,15.5c0,0,0,0.1,0,0.1c0,0,0,0.1,0,0.1c-0.2,0.1-0.3,0.3-0.3,0.6c0.1,0.2,0.2,0.3,0.4,0.3c0,0,0,0,0.1,0
		c0,0.1,0.1,0.1,0.1,0.2c-0.1,0.2-0.1,0.5,0.1,0.6c0.1,0.1,0.2,0.1,0.3,0.1c0.1,0,0.2,0,0.3-0.1c0.1,0,0.1,0.1,0.2,0.1
		c0,0.2,0.2,0.4,0.4,0.5c0,0,0,0,0.1,0c0.2,0,0.4-0.1,0.4-0.3c0.1,0,0.2,0,0.2,0c0.1,0.1,0.2,0.2,0.4,0.2c0.1,0,0.1,0,0.2,0
		c0.2-0.1,0.3-0.3,0.2-0.6c0.1,0,0.1-0.1,0.2-0.1c0.1,0,0.1,0,0.2,0c0.2,0,0.3-0.1,0.4-0.2c0.1-0.2,0.1-0.5-0.1-0.6
		c0-0.1,0-0.1,0.1-0.2c0.2,0,0.4-0.2,0.4-0.5c0,0,0,0,0,0c0,0,0,0,0,0c0-0.2-0.2-0.4-0.4-0.5c0-0.1,0-0.1-0.1-0.2
		c0.2-0.1,0.2-0.4,0.1-0.6c-0.1-0.2-0.4-0.3-0.6-0.2c-0.1-0.1-0.1-0.1-0.2-0.1c0.1-0.2,0-0.5-0.3-0.6c-0.2-0.1-0.5,0-0.6,0.2
		c-0.1,0-0.1,0-0.2,0c-0.1-0.2-0.3-0.4-0.5-0.3c-0.2,0-0.4,0.2-0.4,0.5c-0.1,0-0.1,0.1-0.2,0.1c-0.2-0.2-0.4-0.2-0.6,0
		c-0.2,0.2-0.2,0.4-0.1,0.6c0,0.1-0.1,0.1-0.1,0.2c-0.2,0-0.4,0.1-0.5,0.3C52.7,15.2,52.8,15.5,53,15.5z M53.2,15.6
		c0.2,0,0.3-0.1,0.4-0.3c0.1-0.2,0-0.4-0.2-0.5c0,0,0.1-0.1,0.1-0.1c0.1,0,0.1,0.1,0.2,0.1c0.1,0,0.2,0,0.3-0.1
		c0.1-0.1,0.2-0.3,0.1-0.5c0,0,0.1,0,0.1-0.1c0.1,0.1,0.2,0.2,0.4,0.2c0,0,0,0,0.1,0c0.2,0,0.3-0.2,0.4-0.4c0,0,0.1,0,0.1,0
		c0,0.2,0.1,0.4,0.3,0.4c0.1,0,0.1,0,0.2,0c0.1,0,0.2,0,0.3-0.1c0,0,0.1,0.1,0.1,0.1c-0.1,0.2-0.1,0.4,0,0.5h0
		c0.1,0.1,0.2,0.2,0.4,0.2c0,0,0.1,0,0.1,0c0,0,0,0.1,0,0.1c-0.2,0.1-0.3,0.2-0.3,0.4c0,0,0,0,0,0c0,0,0,0,0,0
		c0,0.2,0.1,0.4,0.3,0.4c0,0,0,0.1,0,0.1c-0.2,0-0.4,0-0.5,0.2c-0.1,0.2-0.1,0.4,0,0.5c0,0-0.1,0.1-0.1,0.1
		c-0.1-0.1-0.3-0.2-0.5-0.1c-0.2,0.1-0.3,0.3-0.3,0.4c0,0-0.1,0-0.1,0c0-0.2-0.2-0.3-0.4-0.4c-0.2,0-0.4,0.1-0.5,0.2
		c0,0-0.1,0-0.1-0.1c0.1-0.2,0-0.4-0.1-0.5c-0.1-0.1-0.4-0.1-0.5-0.1c0,0-0.1-0.1-0.1-0.1c0.1-0.1,0.2-0.3,0.2-0.5
		c-0.1-0.2-0.2-0.3-0.4-0.3C53.2,15.7,53.2,15.7,53.2,15.6C53.2,15.6,53.2,15.6,53.2,15.6z"/>
</g>
<g>
	<path class="st0" d="M14.9,14.3L14.9,14.3l0.2,0.1l0.2-1.4L15,13l0,0.1c0,0-0.8-0.1-1.1-0.3c0,0-0.3,0.4-0.5,0.4
		c0,0.2,0.3,0.7,0.3,0.7L14.9,14.3z M14.7,13.4c0.1,0,0.1,0.1,0.1,0.2c0,0.1-0.1,0.2-0.2,0.2c-0.1,0-0.1-0.1-0.1-0.2
		C14.6,13.5,14.7,13.4,14.7,13.4z M14.3,13.3c0.1,0,0.1,0.1,0.1,0.2c0,0.1-0.1,0.2-0.2,0.2c-0.1,0-0.1-0.1-0.1-0.2
		C14.1,13.4,14.2,13.3,14.3,13.3z"/>
	<path class="st0" d="M15.3,14.4c0,0,0.5,0,0.5-0.7c0.1-0.6-0.4-0.7-0.4-0.7L15.3,14.4z"/>
	<path class="st0" d="M17,13.9c0,0-0.3-0.7-0.3-0.7s-0.3,0-1-0.1c0,0,0.1,0.3,0,0.8c-0.1,0.5-0.2,0.6-0.2,0.6c0,0,1,0,1,0
		C16.7,14.4,17,13.9,17,13.9z M16.3,14c-0.1,0-0.1-0.1-0.1-0.2c0-0.1,0.1-0.2,0.2-0.2c0.1,0,0.1,0.1,0.1,0.2
		C16.5,14,16.4,14.1,16.3,14z"/>
	<path class="st0" d="M14.8,15.5c0.1,0.1,0.1,0.2,0.2,0.2l0-0.3c0,0,0,0,0-0.1c-0.1-0.1,0-0.2,0-0.3c0.1-0.1,0.2-0.1,0.2,0
		c0.1,0.1,0,0.2,0,0.3c0,0,0,0,0,0l0,0.3c0.1,0,0.2,0,0.3-0.1c0.2-0.2,0.2-0.6,0.1-0.8c-0.1-0.3-0.4-0.3-0.6-0.1
		C14.7,14.9,14.7,15.3,14.8,15.5z"/>
</g>
<g>
</g>
<g>
</g>
<g>
</g>
<g>
</g>
<g>
</g>
<g>
</g>
<g>
</g>
<g>
</g>
<g>
</g>
<g>
</g>
<g>
</g>
<g>
</g>
<g>
</g>
<g>
</g>
<g>
</g>
</svg>
